<svg xmlns="http://www.w3.org/2000/svg" enable-background="new 0 0 1000 1000" viewBox="0 0 1000 1000" id="calculator"><path fill="#602a77" d="M0 0h1000v1000H0z"></path><path fill="#241228" stroke="#241228" stroke-linecap="round" stroke-linejoin="round" stroke-miterlimit="10" stroke-width="6" d="M622.593 681.429h-252c-17.673 0-32-14.327-32-32V348.333c0-17.673 14.327-32 32-32h252c17.673 0 32 14.327 32 32v301.096c0 17.673-14.327 32-32 32z" opacity=".2"></path><path fill="#eb6331" d="M635.593 664h-252c-17.673 0-32-14.327-32-32V361.318c0-17.673 14.327-32 32-32h252c17.673 0 32 14.327 32 32V632c0 17.673-14.327 32-32 32z"></path><path fill="#dd562c" d="M635.593 649h-252c-17.673 0-32-14.327-32-32v15c0 17.673 14.327 32 32 32h252c17.673 0 32-14.327 32-32v-15c0 17.673-14.327 32-32 32z"></path><path fill="none" stroke="#511c64" stroke-linecap="round" stroke-linejoin="round" stroke-miterlimit="10" stroke-width="6" d="M635.593 664h-252c-17.673 0-32-14.327-32-32V361.318c0-17.673 14.327-32 32-32h252c17.673 0 32 14.327 32 32V632c0 17.673-14.327 32-32 32z"></path><path fill="#fda22f" d="M635.593 641h-252c-17.673 0-32-14.327-32-32V338.318c0-17.673 14.327-32 32-32h252c17.673 0 32 14.327 32 32V609c0 17.673-14.327 32-32 32z"></path><path fill="#fda22f" d="M635.593 641h-252c-17.673 0-32-14.327-32-32V338.318c0-17.673 14.327-32 32-32h252c17.673 0 32 14.327 32 32V609c0 17.673-14.327 32-32 32z"></path><path fill="#fc9435" d="M370.259 609V338.318c0-17.673 14.327-32 32-32h-18.667c-17.673 0-32 14.327-32 32V609c0 17.673 14.327 32 32 32h18.667c-17.673 0-32-14.327-32-32z"></path><path fill="#ffb331" d="M635.593 306.318h-18.667c17.673 0 32 14.327 32 32V609c0 17.673-14.327 32-32 32h18.667c17.673 0 32-14.327 32-32V338.318c0-17.673-14.327-32-32-32z"></path><path fill="none" stroke="#511c64" stroke-linecap="round" stroke-linejoin="round" stroke-miterlimit="10" stroke-width="6" d="M635.593 641h-252c-17.673 0-32-14.327-32-32V338.318c0-17.673 14.327-32 32-32h252c17.673 0 32 14.327 32 32V609c0 17.673-14.327 32-32 32z"></path><path fill="#a5f3ff" d="M621.593 412h-224a8 8 0 0 1-8-8v-52a8 8 0 0 1 8-8h224a8 8 0 0 1 8 8v52a8 8 0 0 1-8 8z"></path><path fill="#511c64" d="m592.88 360.455-1.92-1.92 1.92-1.92h14.678l1.898 1.581-1.935 2.259z"></path><path fill="#511c64" d="M588.497 375.656v-14.658l1.92-1.92 1.92 1.92v14.658l-1.92 1.92z" opacity=".2"></path><path fill="#511c64" d="M608.081 375.656v-14.675l1.92-2.24 1.92 2.24v14.675l-1.92 1.92z"></path><path fill="#511c64" d="m592.88 380.039-1.92-1.92 1.92-1.92h14.658l1.92 1.92-1.92 1.92zM588.497 395.577v-14.658l1.92-1.92 1.92 1.92v14.658l-1.92 1.92z" opacity=".2"></path><path fill="#511c64" d="M608.081 395.577v-14.675l1.92-2.24 1.92 2.24v14.675l-1.92 1.92z"></path><path fill="#511c64" d="m592.88 399.96-1.92-1.92 1.92-1.92h14.658l1.92 1.92-1.92 1.92z" opacity=".2"></path><path fill="#511c64" d="m558.264 360.455-1.92-1.92 1.92-1.92h14.678l1.898 1.581-1.936 2.259z"></path><path fill="#511c64" d="M553.881 375.656v-14.658l1.92-1.92 1.92 1.92v14.658l-1.92 1.92z" opacity=".2"></path><path fill="#511c64" d="M573.465 375.656v-14.675l1.92-2.24 1.92 2.24v14.675l-1.92 1.92zM558.264 380.039l-1.92-1.92 1.92-1.92h14.658l1.92 1.92-1.92 1.92z"></path><path fill="#511c64" d="M553.881 395.577v-14.658l1.92-1.92 1.92 1.92v14.658l-1.92 1.92z" opacity=".2"></path><path fill="#511c64" d="M573.465 395.577v-14.675l1.92-2.24 1.92 2.24v14.675l-1.92 1.92zM558.264 399.96l-1.92-1.92 1.92-1.92h14.658l1.92 1.92-1.92 1.92z"></path><g opacity=".2"><path fill="#511c64" d="m488.824 360.455-1.92-1.92 1.92-1.92h14.678l1.898 1.581-1.936 2.259zM484.441 375.656v-14.658l1.92-1.92 1.92 1.92v14.658l-1.92 1.92zM504.025 375.656v-14.675l1.92-2.24 1.92 2.24v14.675l-1.92 1.92zM488.824 380.039l-1.92-1.92 1.92-1.92h14.658l1.92 1.92-1.92 1.92zM484.441 395.577v-14.658l1.92-1.92 1.92 1.92v14.658l-1.92 1.92zM504.025 395.577v-14.675l1.92-2.24 1.92 2.24v14.675l-1.92 1.92zM488.824 399.96l-1.92-1.92 1.92-1.92h14.658l1.92 1.92-1.92 1.92z"></path></g><g opacity=".2"><path fill="#511c64" d="m523.509 360.455-1.92-1.92 1.92-1.92h14.679l1.898 1.581-1.936 2.259zM519.126 375.656v-14.658l1.92-1.92 1.92 1.92v14.658l-1.92 1.92zM538.71 375.656v-14.675l1.92-2.24 1.92 2.24v14.675l-1.92 1.92zM523.509 380.039l-1.92-1.92 1.92-1.92h14.658l1.92 1.92-1.92 1.92zM519.126 395.577v-14.658l1.92-1.92 1.92 1.92v14.658l-1.92 1.92zM538.71 395.577v-14.675l1.92-2.24 1.92 2.24v14.675l-1.92 1.92zM523.509 399.96l-1.92-1.92 1.92-1.92h14.658l1.92 1.92-1.92 1.92z"></path></g><g opacity=".2"><path fill="#511c64" d="m419.453 360.455-1.92-1.92 1.92-1.92h14.678l1.898 1.581-1.935 2.259zM415.07 375.656v-14.658l1.92-1.92 1.92 1.92v14.658l-1.92 1.92zM434.654 375.656v-14.675l1.92-2.24 1.92 2.24v14.675l-1.92 1.92zM419.453 380.039l-1.92-1.92 1.92-1.92h14.658l1.92 1.92-1.92 1.92zM415.07 395.577v-14.658l1.92-1.92 1.92 1.92v14.658l-1.92 1.92zM434.654 395.577v-14.675l1.92-2.24 1.92 2.24v14.675l-1.92 1.92zM419.453 399.96l-1.92-1.92 1.92-1.92h14.658l1.92 1.92-1.92 1.92z"></path></g><g opacity=".2"><path fill="#511c64" d="m454.139 360.455-1.92-1.92 1.92-1.92h14.678l1.898 1.581-1.936 2.259zM449.756 375.656v-14.658l1.92-1.92 1.92 1.92v14.658l-1.92 1.92zM469.34 375.656v-14.675l1.92-2.24 1.92 2.24v14.675l-1.92 1.92zM454.139 380.039l-1.92-1.92 1.92-1.92h14.658l1.92 1.92-1.92 1.92zM449.756 395.577v-14.658l1.92-1.92 1.92 1.92v14.658l-1.92 1.92zM469.34 395.577v-14.675l1.92-2.24 1.92 2.24v14.675l-1.92 1.92zM454.139 399.96l-1.92-1.92 1.92-1.92h14.658l1.92 1.92-1.92 1.92z"></path></g><path fill="#d2fcfb" d="M621.593 366h-224a8 8 0 0 1-8-8v-6a8 8 0 0 1 8-8h224a8 8 0 0 1 8 8v6a8 8 0 0 1-8 8z" opacity=".43"></path><path fill="none" stroke="#511c64" stroke-linecap="round" stroke-linejoin="round" stroke-miterlimit="10" stroke-width="6" d="M621.593 412h-224a8 8 0 0 1-8-8v-52a8 8 0 0 1 8-8h224a8 8 0 0 1 8 8v52a8 8 0 0 1-8 8z"></path><path fill="#fc9435" stroke="#fc9435" stroke-miterlimit="10" stroke-width="6" d="M438.593 512.843h-48a8 8 0 0 1-8-8v-48a8 8 0 0 1 8-8h48a8 8 0 0 1 8 8v48a8 8 0 0 1-8 8zM527.206 512.843h-48a8 8 0 0 1-8-8v-48a8 8 0 0 1 8-8h48a8 8 0 0 1 8 8v48a8 8 0 0 1-8 8zM438.593 601.333h-48a8 8 0 0 1-8-8v-48a8 8 0 0 1 8-8h48a8 8 0 0 1 8 8v48a8 8 0 0 1-8 8zM527.206 601.333h-48a8 8 0 0 1-8-8v-48a8 8 0 0 1 8-8h48a8 8 0 0 1 8 8v48a8 8 0 0 1-8 8zM615.206 601.333h-48a8 8 0 0 1-8-8v-136.49a8 8 0 0 1 8-8h48a8 8 0 0 1 8 8v136.491a7.999 7.999 0 0 1-8 7.999z"></path><path fill="#ff82a0" d="M533.593 506.843h-48a8 8 0 0 1-8-8v-48a8 8 0 0 1 8-8h48a8 8 0 0 1 8 8v48a8 8 0 0 1-8 8z"></path><path fill="#b078fd" d="M621.593 594.843h-48a8 8 0 0 1-8-8v-136a8 8 0 0 1 8-8h48a8 8 0 0 1 8 8v136a8 8 0 0 1-8 8z"></path><path fill="#a270f2" d="M577.468 587.843a3.875 3.875 0 0 1-3.875-3.875V442.843a8 8 0 0 0-8 8v136a8 8 0 0 0 8 8h48c4.079 0 7.438-3.055 7.931-7h-52.056z"></path><path fill="none" stroke="#511c64" stroke-linecap="round" stroke-linejoin="round" stroke-miterlimit="10" stroke-width="6" d="M621.593 594.843h-48a8 8 0 0 1-8-8v-136a8 8 0 0 1 8-8h48a8 8 0 0 1 8 8v136a8 8 0 0 1-8 8z"></path><path fill="#511c64" d="M583.193 506h28.8v7.2h-28.8zM583.193 516.8h28.8v7.2h-28.8z"></path><path fill="none" stroke="#fff" stroke-linecap="round" stroke-linejoin="round" stroke-miterlimit="10" stroke-width="3" d="M609 451.5h4.833a6.667 6.667 0 0 1 6.667 6.667v19.676"></path><path fill="#f27095" d="M489.468 499.843a3.875 3.875 0 0 1-3.875-3.875v-53.125a8 8 0 0 0-8 8v48a8 8 0 0 0 8 8h48c4.079 0 7.438-3.055 7.931-7h-52.056z"></path><path fill="none" stroke="#511c64" stroke-linecap="round" stroke-linejoin="round" stroke-miterlimit="10" stroke-width="6" d="M533.593 506.843h-48a8 8 0 0 1-8-8v-48a8 8 0 0 1 8-8h48a8 8 0 0 1 8 8v48a8 8 0 0 1-8 8z"></path><path fill="#511c64" d="M496.987 471.7h25.143v6.286h-25.143z"></path><path fill="none" stroke="#fff" stroke-linecap="round" stroke-linejoin="round" stroke-miterlimit="10" stroke-width="3" d="M525.763 451.5h2.154a4.583 4.583 0 0 1 4.583 4.583V463"></path><path fill="#ff82a0" d="M445.593 506.843h-48a8 8 0 0 1-8-8v-48a8 8 0 0 1 8-8h48a8 8 0 0 1 8 8v48a8 8 0 0 1-8 8z"></path><path fill="#f27095" d="M401.468 499.843a3.875 3.875 0 0 1-3.875-3.875v-53.125a8 8 0 0 0-8 8v48a8 8 0 0 0 8 8h48c4.079 0 7.438-3.055 7.931-7h-52.056z"></path><path fill="none" stroke="#511c64" stroke-linecap="round" stroke-linejoin="round" stroke-miterlimit="10" stroke-width="6" d="M445.593 506.843h-48a8 8 0 0 1-8-8v-48a8 8 0 0 1 8-8h48a8 8 0 0 1 8 8v48a8 8 0 0 1-8 8z"></path><path fill="#511c64" d="M407.562 471.7h25.143v6.286h-25.143z"></path><path fill="#511c64" d="M407.562 471.7h25.143v6.286h-25.143z" transform="rotate(90 420.133 474.843)"></path><path fill="none" stroke="#fff" stroke-linecap="round" stroke-linejoin="round" stroke-miterlimit="10" stroke-width="3" d="M437.265 451.5h2.154a4.583 4.583 0 0 1 4.583 4.583V463"></path><path fill="#ff82a0" d="M445.593 594.843h-48a8 8 0 0 1-8-8v-48a8 8 0 0 1 8-8h48a8 8 0 0 1 8 8v48a8 8 0 0 1-8 8z"></path><path fill="#f27095" d="M401.468 587.843a3.875 3.875 0 0 1-3.875-3.875v-53.125a8 8 0 0 0-8 8v48a8 8 0 0 0 8 8h48c4.079 0 7.438-3.055 7.931-7h-52.056z"></path><path fill="none" stroke="#511c64" stroke-linecap="round" stroke-linejoin="round" stroke-miterlimit="10" stroke-width="6" d="M445.593 594.843h-48a8 8 0 0 1-8-8v-48a8 8 0 0 1 8-8h48a8 8 0 0 1 8 8v48a8 8 0 0 1-8 8z"></path><path fill="#511c64" d="M409.021 559.7h25.143v6.286h-25.143z" transform="rotate(45.001 421.601 562.84)"></path><path fill="#511c64" d="M409.021 559.7h25.143v6.286h-25.143z" transform="rotate(134.999 421.596 562.845)"></path><path fill="none" stroke="#fff" stroke-linecap="round" stroke-linejoin="round" stroke-miterlimit="10" stroke-width="3" d="M437.265 540.231h2.154a4.583 4.583 0 0 1 4.583 4.583v6.917"></path><path fill="#ff82a0" d="M533.593 594.843h-48a8 8 0 0 1-8-8v-48a8 8 0 0 1 8-8h48a8 8 0 0 1 8 8v48a8 8 0 0 1-8 8z"></path><path fill="#f27095" d="M489.468 587.843a3.875 3.875 0 0 1-3.875-3.875v-53.125a8 8 0 0 0-8 8v48a8 8 0 0 0 8 8h48c4.079 0 7.438-3.055 7.931-7h-52.056z"></path><path fill="none" stroke="#511c64" stroke-linecap="round" stroke-linejoin="round" stroke-miterlimit="10" stroke-width="6" d="M533.593 594.843h-48a8 8 0 0 1-8-8v-48a8 8 0 0 1 8-8h48a8 8 0 0 1 8 8v48a8 8 0 0 1-8 8z"></path><path fill="#511c64" d="M497.021 559.7h25.143v6.286h-25.143z"></path><path fill="#511c64" d="M506.45 569.129h6.286v6.286h-6.286z" transform="rotate(90 509.593 572.271)"></path><path fill="#511c64" d="M506.45 550.271h6.286v6.286h-6.286z" transform="rotate(90 509.593 553.414)"></path><path fill="none" stroke="#fff" stroke-linecap="round" stroke-linejoin="round" stroke-miterlimit="10" stroke-width="3" d="M525.763 540.231h2.154a4.583 4.583 0 0 1 4.583 4.583v6.917"></path></svg>