<svg xmlns="http://www.w3.org/2000/svg" enable-background="new 0 0 1000 1000" viewBox="0 0 1000 1000" id="gaming-console"><rect width="1000" height="1000" fill="#53bcbd"></rect><path stroke="#000" stroke-linecap="round" stroke-linejoin="round" stroke-miterlimit="10" stroke-width="10" d="
	M692.254,414.781h-380c-72.902,0-132,59.098-132,132s59.098,132,132,132c51.296,0,95.757-29.26,117.606-72h144.789
	c21.849,42.74,66.31,72,117.606,72c72.902,0,132-59.098,132-132S765.156,414.781,692.254,414.781z" opacity=".41"></path><path fill="none" stroke="#000" stroke-linecap="round" stroke-linejoin="round" stroke-miterlimit="10" stroke-width="10" d="
	M502.254,382.542V263.084c0-13.67-11.081-24.751-24.751-24.751H290.005c-13.67,0-24.751-11.081-24.751-24.751v0
	c0-13.67,11.081-24.751,24.751-24.751h397.498c13.67,0,24.751-11.081,24.751-24.751v0c0-13.67-11.081-24.751-24.751-24.751H527.005
	c-13.669,0-24.751-11.081-24.751-24.751V9" opacity=".41"></path><path fill="none" stroke="#663c3b" stroke-linejoin="round" stroke-miterlimit="10" stroke-width="10" d="
	M502.254,369.209V249.751c0-13.67-11.081-24.751-24.751-24.751H290.005c-13.67,0-24.751-11.081-24.751-24.751v0
	c0-13.67,11.081-24.751,24.751-24.751h397.498c13.67,0,24.751-11.081,24.751-24.751v0c0-13.67-11.081-24.751-24.751-24.751H527.005
	c-13.669,0-24.751-11.081-24.751-24.751V0"></path><rect width="58" height="12.499" x="473.254" y="379" fill="#663c3b"></rect><rect width="41.492" height="9.792" x="481.508" y="372.75" fill="#663c3b"></rect><rect width="30.492" height="9.374" x="487.008" y="366.501" fill="#663c3b"></rect><path fill="#fec556" d="M692.254,391.781h-380c-72.902,0-132,59.098-132,132s59.098,132,132,132
	c51.296,0,95.757-29.26,117.606-72h144.789c21.849,42.74,66.31,72,117.606,72c72.902,0,132-59.098,132-132
	S765.156,391.781,692.254,391.781z"></path><path fill="#f29940" d="M481.746 443.583h-28c-2.209 0-4-1.791-4-4l0 0c0-2.209 1.791-4 4-4h28c2.209 0 4 1.791 4 4l0 0C485.746 441.792 483.955 443.583 481.746 443.583zM560.444 443.912H503.5c-2.209 0-4-1.791-4-4l0 0c0-2.209 1.791-4 4-4h56.944c2.209 0 4 1.791 4 4l0 0C564.444 442.121 562.654 443.912 560.444 443.912zM560.38 460.417H453.62c-2.209 0-4-1.791-4-4l0 0c0-2.209 1.791-4 4-4H560.38c2.209 0 4 1.791 4 4l0 0C564.38 458.626 562.59 460.417 560.38 460.417zM452.382 542.723L452.382 542.723c-3.515-3.515-3.515-9.213 0-12.728l29.699-29.699c3.515-3.515 9.213-3.515 12.728 0l0 0c3.515 3.515 3.515 9.213 0 12.728l-29.698 29.698C461.595 546.238 455.897 546.238 452.382 542.723zM519.382 542.723L519.382 542.723c-3.515-3.515-3.515-9.213 0-12.728l29.698-29.699c3.515-3.515 9.213-3.515 12.728 0h0c3.515 3.515 3.515 9.213 0 12.728l-29.699 29.698C528.595 546.238 522.897 546.238 519.382 542.723z"></path><path fill="#f29940" d="M312.254,403.333h380c71.335,0,129.443,55.612,131.909,125.126
	c0.054-1.554,0.091-3.112,0.091-4.678c0-72.902-59.098-132-132-132h-380c-72.902,0-132,59.098-132,132
	c0,1.567,0.037,3.125,0.091,4.678C182.811,458.945,240.919,403.333,312.254,403.333z"></path><path fill="#f29940" d="M692.254,638.781c-51.296,0-92.757-21.26-114.606-64H426.86
	c-21.849,42.74-63.31,64-114.606,64c-70.045,0-127.337-54.561-131.72-123.5c-0.179,2.811-0.28,5.644-0.28,8.5
	c0,72.902,59.098,132,132,132c51.296,0,95.757-29.26,117.606-72h144.789c21.849,42.74,66.31,72,117.606,72
	c72.902,0,132-59.098,132-132c0-2.856-0.101-5.689-0.28-8.5C819.591,584.22,762.299,638.781,692.254,638.781z"></path><circle cx="312.762" cy="531" r="85" fill="#f29940"></circle><circle cx="312.762" cy="523.781" r="84" fill="#835559"></circle><circle cx="312.762" cy="523.781" r="71" fill="#95676b"></circle><path fill="#663c3b" d="M363.158,507.781h-34.396v-34.396c0-2.542-2.061-4.604-4.604-4.604h-22.793
	c-2.542,0-4.604,2.061-4.604,4.604v34.396h-34.396c-2.542,0-4.604,2.061-4.604,4.604v22.793c0,2.542,2.061,4.604,4.604,4.604h34.396
	v34.396c0,2.542,2.061,4.604,4.604,4.604h22.793c2.542,0,4.604-2.061,4.604-4.604v-34.396h34.396c2.542,0,4.604-2.061,4.604-4.604
	v-22.793C367.762,509.842,365.701,507.781,363.158,507.781z"></path><circle cx="312.762" cy="523.781" r="84" fill="none" stroke="#663c3b" stroke-linecap="round" stroke-linejoin="round" stroke-miterlimit="10" stroke-width="6"></circle><circle cx="692.762" cy="531" r="85" fill="#f29940"></circle><circle cx="692.762" cy="523.781" r="84" fill="#835559"></circle><circle cx="692.762" cy="523.781" r="71" fill="#95676b"></circle><circle cx="692.762" cy="523.781" r="84" fill="none" stroke="#663c3b" stroke-linecap="round" stroke-linejoin="round" stroke-miterlimit="10" stroke-width="6"></circle><path fill="#fec556" d="M306.308 487.21l5.547-9.608c.403-.698 1.41-.698 1.813 0l5.547 9.608c.403.698-.101 1.57-.906 1.57h-11.094C306.409 488.78 305.905 487.908 306.308 487.21zM306.308 560.352l5.547 9.608c.403.698 1.41.698 1.813 0l5.547-9.608c.403-.698-.101-1.57-.906-1.57h-11.094C306.409 558.782 305.905 559.654 306.308 560.352z"></path><path fill="none" stroke="#663c3b" stroke-linecap="round" stroke-linejoin="round" stroke-miterlimit="10" stroke-width="3" d="
	M363.158,507.781h-34.396v-34.396c0-2.542-2.061-4.604-4.604-4.604h-22.793c-2.542,0-4.604,2.061-4.604,4.604v34.396h-34.396
	c-2.542,0-4.604,2.061-4.604,4.604v22.793c0,2.542,2.061,4.604,4.604,4.604h34.396v34.396c0,2.542,2.061,4.604,4.604,4.604h22.793
	c2.542,0,4.604-2.061,4.604-4.604v-34.396h34.396c2.542,0,4.604-2.061,4.604-4.604v-22.793
	C367.762,509.842,365.701,507.781,363.158,507.781z"></path><path fill="#fec556" d="M347.618 517.328l9.608 5.547c.698.403.698 1.41 0 1.813l-9.608 5.547c-.698.403-1.57-.101-1.57-.906v-11.094C346.048 517.428 346.92 516.925 347.618 517.328zM276.191 517.328l-9.608 5.547c-.698.403-.698 1.41 0 1.813l9.608 5.547c.698.403 1.57-.101 1.57-.906v-11.094C277.761 517.428 276.888 516.925 276.191 517.328z"></path><path fill="none" stroke="#663c3b" stroke-linecap="round" stroke-linejoin="round" stroke-miterlimit="10" stroke-width="8" d="M602 385.781h90.762c19.539 0 38.143 4.082 55.003 11.437M257.761 397.217c16.86-7.355 35.462-11.436 55-11.436H402"></path><path fill="none" stroke="#663c3b" stroke-linecap="round" stroke-linejoin="round" stroke-miterlimit="10" stroke-width="6" d="
	M692.254,391.781h-380c-72.902,0-132,59.098-132,132s59.098,132,132,132c51.296,0,95.757-29.26,117.606-72h144.789
	c21.849,42.74,66.31,72,117.606,72c72.902,0,132-59.098,132-132S765.156,391.781,692.254,391.781z"></path><path d="M706.318,511.468l-39.598,39.598c-8.591,8.592-22.521,8.592-31.113,0l0,0
	c-8.592-8.592-8.592-22.521,0-31.113l39.598-39.598c8.591-8.592,22.521-8.592,31.113,0v0
	C714.91,488.947,714.91,502.877,706.318,511.468z" opacity=".17"></path><path fill="#fec556" d="M704.318,507.468l-39.598,39.598c-8.591,8.592-22.521,8.592-31.113,0l0,0
	c-8.592-8.592-8.592-22.521,0-31.113l39.598-39.598c8.591-8.592,22.521-8.592,31.113,0v0
	C712.91,484.947,712.91,498.877,704.318,507.468z"></path><path fill="none" stroke="#663c3b" stroke-linecap="round" stroke-linejoin="round" stroke-miterlimit="10" stroke-width="3" d="
	M704.318,507.468l-39.598,39.598c-8.591,8.592-22.521,8.592-31.113,0l0,0c-8.592-8.592-8.592-22.521,0-31.113l39.598-39.598
	c8.591-8.592,22.521-8.592,31.113,0v0C712.91,484.947,712.91,498.877,704.318,507.468z"></path><circle cx="649.164" cy="531.51" r="14" fill="#32b94d"></circle><path fill="none" stroke="#663c3b" stroke-linecap="round" stroke-linejoin="round" stroke-miterlimit="10" stroke-width="2" d="
	M640.198,530.726c0.433-4.952,4.798-8.615,9.75-8.181"></path><circle cx="649.164" cy="531.51" r="14" fill="none" stroke="#663c3b" stroke-linecap="round" stroke-linejoin="round" stroke-miterlimit="10" stroke-width="3"></circle><circle cx="688.762" cy="491.912" r="14" fill="#8bd8f5"></circle><path fill="none" stroke="#663c3b" stroke-linecap="round" stroke-linejoin="round" stroke-miterlimit="10" stroke-width="2" d="
	M679.762,491.912c0-4.971,4.029-9,9-9"></path><circle cx="688.762" cy="491.912" r="14" fill="none" stroke="#663c3b" stroke-linecap="round" stroke-linejoin="round" stroke-miterlimit="10" stroke-width="3"></circle><path d="M752.916,537.739l-39.598,39.598c-8.592,8.592-22.521,8.592-31.113,0h0
	c-8.591-8.592-8.591-22.521,0-31.113l39.598-39.598c8.592-8.592,22.521-8.592,31.113,0l0,0
	C761.508,515.218,761.508,529.148,752.916,537.739z" opacity=".17"></path><path fill="#fec556" d="M751.916,532.739l-39.598,39.598c-8.592,8.592-22.521,8.592-31.113,0h0
	c-8.591-8.592-8.591-22.521,0-31.113l39.598-39.598c8.592-8.592,22.521-8.592,31.113,0l0,0
	C760.508,510.218,760.508,524.148,751.916,532.739z"></path><path fill="none" stroke="#663c3b" stroke-linecap="round" stroke-linejoin="round" stroke-miterlimit="10" stroke-width="3" d="
	M751.916,532.739l-39.598,39.598c-8.592,8.592-22.521,8.592-31.113,0h0c-8.591-8.592-8.591-22.521,0-31.113l39.598-39.598
	c8.592-8.592,22.521-8.592,31.113,0l0,0C760.508,510.218,760.508,524.148,751.916,532.739z"></path><circle cx="696.762" cy="556.781" r="14" fill="#fef585"></circle><path fill="none" stroke="#663c3b" stroke-linecap="round" stroke-linejoin="round" stroke-miterlimit="10" stroke-width="2" d="
	M687.762,556.781c0-4.971,4.029-9,9-9"></path><circle cx="696.762" cy="556.781" r="14" fill="none" stroke="#663c3b" stroke-linecap="round" stroke-linejoin="round" stroke-miterlimit="10" stroke-width="3"></circle><circle cx="736.36" cy="517.183" r="14" fill="#e7503b"></circle><path fill="none" stroke="#663c3b" stroke-linecap="round" stroke-linejoin="round" stroke-miterlimit="10" stroke-width="2" d="
	M727.36,517.183c0-4.971,4.029-9,9-9"></path><circle cx="736.36" cy="517.183" r="14" fill="none" stroke="#663c3b" stroke-linecap="round" stroke-linejoin="round" stroke-miterlimit="10" stroke-width="3"></circle><path fill="#663c3b" d="M452.382 538.723L452.382 538.723c-3.515-3.515-3.515-9.213 0-12.728l29.699-29.699c3.515-3.515 9.213-3.515 12.728 0l0 0c3.515 3.515 3.515 9.213 0 12.728l-29.698 29.698C461.595 542.238 455.897 542.238 452.382 538.723zM519.382 538.723L519.382 538.723c-3.515-3.515-3.515-9.213 0-12.728l29.698-29.699c3.515-3.515 9.213-3.515 12.728 0h0c3.515 3.515 3.515 9.213 0 12.728l-29.699 29.698C528.595 542.238 522.897 542.238 519.382 538.723z"></path><circle cx="312.762" cy="523.781" r="16" fill="#fec556"></circle><path fill="#f29940" d="M312.762,536.51c-8.121,0-15.062-6.425-15.911-14.364
	c-0.058,0.539-0.089,1.084-0.089,1.636c0,8.673,7.328,16,16,16s16-7.327,16-16c0-0.551-0.031-1.097-0.089-1.636
	C327.823,530.085,320.883,536.51,312.762,536.51z"></path><path fill="none" stroke="#663c3b" stroke-linecap="round" stroke-linejoin="round" stroke-miterlimit="10" stroke-width="2" d="
	M300.762,523.781c0-6.505,5.496-12,12-12"></path></svg>