<svg xmlns="http://www.w3.org/2000/svg" enable-background="new 0 0 1000 1000" viewBox="0 0 1000 1000" id="gpu"><linearGradient id="a" x1="500" x2="500" y1="-147.015" y2="1036.887" gradientUnits="userSpaceOnUse"><stop offset="0" stop-color="#e03f3f"></stop><stop offset="1" stop-color="#ce0033"></stop></linearGradient><path fill="url(#a)" d="M0 0h1000v1000H0z"></path><path fill="#2d2d2d" stroke="#2d2d2d" stroke-miterlimit="10" stroke-width="6" d="M643.417 405.122h-258v81.5h-18v-130c0-9.941-8.059-18-18-18H320.25v18h29.167v61.397h-12a8 8 0 0 0-8 8v48a8 8 0 0 0 8 8h12v26.054h-12a8 8 0 0 0-8 8v38a8 8 0 0 0 8 8h12v63.549c0 4.971 4.029 9 9 9s9-4.029 9-9v-40.5H392.5v11.333a7 7 0 1 0 14 0v-11.333H422v22c0 5.523 4.477 10 10 10h44c5.523 0 10-4.477 10-10v-22h20.248v22c0 5.523 4.477 10 10 10h112c5.523 0 10-4.477 10-10v-22h5.169c12.15 0 22-9.85 22-22v-136c0-12.15-9.85-22-22-22z" opacity=".19"></path><path fill="#b4d8ed" d="M346.417 406.019v64h-12a8 8 0 0 1-8-8v-48a8 8 0 0 1 8-8h12zM346.417 496.073v54h-12a8 8 0 0 1-8-8v-38a8 8 0 0 1 8-8h12z"></path><path fill="#7ba9bf" d="M310.125 433.727h64v8.583h-64z" opacity=".73" transform="rotate(-90 342.125 438.02)"></path><path fill="#7ba9bf" d="M315.125 518.781h54v8.583h-54z" opacity=".73" transform="rotate(-90 342.125 523.073)"></path><path fill="none" stroke="#2d2d2d" stroke-linecap="round" stroke-linejoin="round" stroke-miterlimit="10" stroke-width="6" d="M346.417 406.019v64h-12a8 8 0 0 1-8-8v-48a8 8 0 0 1 8-8h12zM346.417 496.073v54h-12a8 8 0 0 1-8-8v-38a8 8 0 0 1 8-8h12z"></path><path fill="#4f5c68" d="M346.417 326.622H317.25v18h29.167v269a9 9 0 0 0 9 9 9 9 0 0 0 9-9v-269c0-9.941-8.059-18-18-18z"></path><path fill="none" stroke="#2d2d2d" stroke-linecap="round" stroke-linejoin="round" stroke-miterlimit="10" stroke-width="6" d="M346.417 326.622H317.25v18h29.167v269a9 9 0 0 0 9 9h0a9 9 0 0 0 9-9v-269 0c0-9.941-8.059-18-18-18h0z"></path><path fill="#35bc6c" d="M513.248 605.122h112c5.523 0 10-4.477 10-10v-22h-132v22c0 5.523 4.477 10 10 10z"></path><path fill="#2aa85d" d="M503.248 574.122h132v9.167h-132z" transform="rotate(-180 569.248 578.705)"></path><path fill="#ffc661" d="M628.281 605.122h-7v-14a2 2 0 0 1 2-2h3a2 2 0 0 1 2 2v14zM616.281 605.122h-7v-14a2 2 0 0 1 2-2h3a2 2 0 0 1 2 2v14zM604.281 605.122h-7v-14a2 2 0 0 1 2-2h3a2 2 0 0 1 2 2v14zM592.281 605.122h-7v-14a2 2 0 0 1 2-2h3a2 2 0 0 1 2 2v14zM580.281 605.122h-7v-14a2 2 0 0 1 2-2h3a2 2 0 0 1 2 2v14zM568.281 605.122h-7v-14a2 2 0 0 1 2-2h3a2 2 0 0 1 2 2v14zM556.281 605.122h-7v-14a2 2 0 0 1 2-2h3a2 2 0 0 1 2 2v14zM544.281 605.122h-7v-14a2 2 0 0 1 2-2h3a2 2 0 0 1 2 2v14zM532.281 605.122h-7v-14a2 2 0 0 1 2-2h3a2 2 0 0 1 2 2v14zM520.281 605.122h-7v-14a2 2 0 0 1 2-2h3a2 2 0 0 1 2 2v14z"></path><path fill="none" stroke="#2d2d2d" stroke-linecap="round" stroke-linejoin="round" stroke-miterlimit="10" stroke-width="6" d="M513.248 605.122h112c5.523 0 10-4.477 10-10v-22h-132v22c0 5.523 4.477 10 10 10z"></path><path fill="#35bc6c" d="M429 605.122h44c5.523 0 10-4.477 10-10v-22h-64v22c0 5.523 4.477 10 10 10z"></path><path fill="#2aa85d" d="M419 574.122h64v9.167h-64z" transform="rotate(-180 451 578.705)"></path><path fill="#ffc661" d="M472.833 605.122h-7v-14a2 2 0 0 1 2-2h3a2 2 0 0 1 2 2v14zM460.833 605.122h-7v-14a2 2 0 0 1 2-2h3a2 2 0 0 1 2 2v14zM448.833 605.122h-7v-14a2 2 0 0 1 2-2h3a2 2 0 0 1 2 2v14zM436.833 605.122h-7v-14a2 2 0 0 1 2-2h3a2 2 0 0 1 2 2v14z"></path><path fill="none" stroke="#2d2d2d" stroke-linecap="round" stroke-linejoin="round" stroke-miterlimit="10" stroke-width="6" d="M429 605.122h44c5.523 0 10-4.477 10-10v-22h-64v22c0 5.523 4.477 10 10 10z"></path><path fill="#3c4652" d="M640.417 393.122h-258v81.5h-18v98.5h276c12.15 0 22-9.85 22-22v-136c0-12.15-9.85-22-22-22z"></path><path fill="#363f49" d="M640.417 393.122h-7.333c12.15 0 22 9.85 22 22v136c0 12.15-9.85 22-22 22h7.333c12.15 0 22-9.85 22-22v-136c0-12.15-9.85-22-22-22z"></path><path fill="#2f3942" d="M640.417 565.24h-276v7.882h276c12.15 0 22-9.85 22-22v-7.882c0 12.15-9.85 22-22 22z"></path><path fill="#46515b" d="M640.417 393.122h-258v8.95h258c12.15 0 22 9.85 22 22v-8.95c0-12.15-9.85-22-22-22zM364.417 474.622h18v8.95h-18z"></path><path fill="#2f3942" d="M364.414 474.622h10.172v98.5h-10.172z"></path><path fill="none" stroke="#2d2d2d" stroke-linecap="round" stroke-linejoin="round" stroke-miterlimit="10" stroke-width="6" d="M640.417 393.122h-258v81.5h-18v98.5h276c12.15 0 22-9.85 22-22v-136c0-12.15-9.85-22-22-22z"></path><path fill="#4f5e6d" d="M570.417 549.122H396.5v-132h173.917c36.451 0 66 29.549 66 66s-29.55 66-66 66z"></path><path fill="none" stroke="#2d2d2d" stroke-linecap="round" stroke-linejoin="round" stroke-miterlimit="10" stroke-width="5" d="M570.417 549.122H396.5v-132h173.917c36.451 0 66 29.549 66 66v0c0 36.451-29.55 66-66 66z"></path><circle cx="570.281" cy="483.122" r="56" fill="#2d2d2d"></circle><path fill="#fc244d" d="M573.213 538.34a56.18 56.18 0 0 1-8.745-11.453c-7.251-12.56-9.31-27.046-6.012-40.861-7.124 9.094-11.092 20.399-11.092 32.091 0 4.491.58 8.966 1.723 13.299l1.099 4.163-3.89-1.847a56.238 56.238 0 0 1-22.086-18.787l-.53-.766.245-.897a56.199 56.199 0 0 1 5.548-13.311c7.255-12.565 18.777-21.594 32.4-25.643a52.13 52.13 0 0 0-7.412-.529c-9.071 0-18.042 2.412-25.944 6.975a52.177 52.177 0 0 0-10.637 8.122l-3.058 3.032-.344-4.292a56.04 56.04 0 0 1-.197-4.514c0-8.382 1.813-16.452 5.391-23.985l.398-.84.898-.236a56.14 56.14 0 0 1 14.317-1.855c14.503 0 28.077 5.46 38.393 15.225-4.313-10.718-12.121-19.807-22.245-25.651a52.16 52.16 0 0 0-12.362-5.153l-4.146-1.13 3.533-2.444a55.86 55.86 0 0 1 27.311-9.731l.926-.074.654.659a56.18 56.18 0 0 1 8.745 11.453c7.251 12.56 9.311 27.045 6.012 40.86 7.124-9.094 11.092-20.399 11.092-32.09 0-4.491-.58-8.966-1.723-13.299l-1.099-4.163 3.89 1.847a56.23 56.23 0 0 1 22.086 18.787l.529.765-.244.898a56.161 56.161 0 0 1-5.548 13.312c-7.255 12.565-18.777 21.594-32.4 25.643 2.451.352 4.927.529 7.413.529a51.955 51.955 0 0 0 25.943-6.975 52.198 52.198 0 0 0 10.638-8.123l3.061-3.033.342 4.296c.131 1.657.195 3.133.195 4.511 0 8.383-1.813 16.453-5.391 23.986l-.398.84-.898.236a56.207 56.207 0 0 1-14.317 1.854c-14.503 0-28.077-5.459-38.393-15.224 4.313 10.717 12.121 19.806 22.245 25.651a52.16 52.16 0 0 0 12.362 5.153l4.146 1.13-3.533 2.444a55.871 55.871 0 0 1-27.311 9.732l-.926.073-.654-.66z"></path><path fill="#ce1d47" d="M551.142 430.505zM548.929 431.366zM550.654 430.688zM547.22 432.104zM545.528 432.903zM542.166 434.704c-.273.158-.546.316-.816.479.27-.163.543-.32.816-.479zM543.846 433.767zM540.491 435.717c-.22.138-.44.274-.658.416.218-.142.438-.278.658-.416zM538.813 436.813c-.118.08-.238.156-.355.237l-.303.21c.218-.152.439-.298.658-.447zM560.411 428.011c-.142.025-.283.054-.425.08l.425-.08zM538.049 437.334l-3.123 2.161.191.052a54.607 54.607 0 0 1 2.932-2.213zM554.178 429.503zM555.984 428.994zM518.581 463.451a56.134 56.134 0 0 1 14.039-3.369c14.421-1.544 28.499 2.44 39.795 11.051-.3-.564-.615-1.12-.935-1.671-10.01-8.525-22.698-13.258-36.193-13.258a56.14 56.14 0 0 0-14.317 1.855l-.898.236-.398.84a56.084 56.084 0 0 0-1.932 4.636l.839-.32zM559.716 428.145zM557.829 428.54zM624.892 495.571c.113-.496.202-.997.301-1.496-.1.499-.187.999-.301 1.496zM561.488 428.529a56.258 56.258 0 0 1 9.915 10.457c8.547 11.716 12.136 25.9 10.327 39.988a52.45 52.45 0 0 0 .98-1.646c2.378-12.931.132-26.285-6.615-37.972a56.18 56.18 0 0 0-8.745-11.453l-.654-.659-.926.074a55.912 55.912 0 0 0-4.993.632l.711.579zM613.164 448.199a56.129 56.129 0 0 1-4.099 13.826c-5.876 13.266-16.372 23.47-29.487 28.946.631.023 1.262.033 1.893.033 12.406-4.402 22.864-13.03 29.619-24.731a56.144 56.144 0 0 0 5.548-13.312l.244-.898-.529-.765c-.952-1.376-1.984-2.687-3.05-3.968l-.139.869zM625.963 477.16c.082.763.131 1.524.182 2.285-.019-.275-.037-.549-.059-.834l-.342-4.296-.149.148c.152.945.276 1.842.368 2.697zM621.981 502.792a56.184 56.184 0 0 1-14.039 3.368c-14.421 1.544-28.499-2.439-39.795-11.05.3.564.615 1.12.935 1.671 10.01 8.525 22.698 13.257 36.193 13.257 4.833 0 9.65-.624 14.317-1.854l.898-.236.398-.84a56.084 56.084 0 0 0 1.932-4.636l-.839.32zM626.225 480.83zM625.512 492.442c.021-.122.033-.247.053-.369-.02.122-.032.246-.053.369zM624.755 496.111a55.945 55.945 0 0 1-1.599 5.473l-.017.049a55.07 55.07 0 0 0 1.616-5.522zM607.061 440.93zM604.273 438.651zM594.998 432.889c-.246-.121-.483-.26-.732-.377l-3.89-1.847.063.238c1.549.6 3.073 1.253 4.559 1.986zM601.334 436.548zM598.243 434.625zM609.699 443.384zM611.042 444.773zM533.504 525.315zM545.558 533.351c.248.122.487.262.737.38l3.89 1.847-.063-.238a55.505 55.505 0 0 1-4.564-1.989zM579.074 537.714a56.225 56.225 0 0 1-9.915-10.457c-8.547-11.716-12.136-25.901-10.327-39.989a53.579 53.579 0 0 0-.98 1.645c-2.377 12.931-.132 26.286 6.615 37.974a56.18 56.18 0 0 0 8.745 11.453l.654.659.926-.073a55.55 55.55 0 0 0 4.993-.633l-.711-.579zM530.866 522.862zM542.318 531.618zM539.229 529.696zM586.414 536.732zM536.291 527.594zM601.749 529.43c.117-.08.237-.155.354-.236l.302-.209c-.216.151-.437.296-.656.445zM584.615 537.241zM602.514 528.91l3.123-2.16-.191-.052a55.948 55.948 0 0 1-2.932 2.212zM580.146 538.234c.131-.023.261-.049.391-.073l-.391.073zM582.781 537.693zM580.909 538.087zM598.398 531.538c.272-.158.545-.315.814-.478-.27.163-.542.321-.814.478zM591.647 534.872zM593.356 534.133zM589.925 535.549zM589.413 535.741zM595.04 533.338zM600.071 530.527c.22-.138.44-.274.658-.416-.218.142-.439.278-.658.416zM596.721 532.474c.314-.168.627-.336.938-.51-.311.174-.625.342-.938.51zM514.337 485.41zM514.599 489.082c-.077-.722-.122-1.441-.172-2.161.017.237.032.47.051.714l.344 4.292.146-.145a50.568 50.568 0 0 1-.369-2.7zM517.406 464.66l.017-.05a54.998 54.998 0 0 0-.017.05zM527.398 518.045a56.169 56.169 0 0 1 4.099-13.826c5.876-13.266 16.372-23.47 29.487-28.946a51.962 51.962 0 0 0-1.893-.033c-12.406 4.402-22.864 13.03-29.619 24.731a56.206 56.206 0 0 0-5.548 13.312l-.245.897.53.766c.952 1.375 1.983 2.686 3.049 3.966l.14-.867zM529.516 521.466zM514.998 474.166c.02-.121.032-.243.052-.364-.02.121-.033.243-.052.364zM515.369 472.169c.1-.499.187-1 .301-1.497-.113.496-.202.998-.301 1.497z"></path><circle cx="569.314" cy="483.122" r="21" fill="#fc244d"></circle><circle cx="569.314" cy="483.122" r="15.479" fill="#ce1d47"></circle><circle cx="569.172" cy="483.122" r="12.985" fill="#2d2d2d"></circle><circle cx="570.281" cy="483.122" r="56" fill="none" stroke="#2d2d2d" stroke-linecap="round" stroke-linejoin="round" stroke-miterlimit="10" stroke-width="6"></circle><path fill="#2d2d2d" d="M464.74 448.356h-48.48a7.76 7.76 0 0 1-7.76-7.76 7.76 7.76 0 0 1 7.76-7.76h48.479a7.76 7.76 0 0 1 7.76 7.76 7.758 7.758 0 0 1-7.759 7.76z"></path><path fill="#232323" d="M416.26 448.356c-3.728 0-6.76-3.033-6.76-6.76s3.033-6.76 6.76-6.76h48.479c3.728 0 6.76 3.033 6.76 6.76s-3.033 6.76-6.76 6.76H416.26z"></path><path fill="#2d2d2d" d="M464.74 475.374h-48.48a7.76 7.76 0 0 1-7.76-7.76 7.76 7.76 0 0 1 7.76-7.76h48.479a7.76 7.76 0 0 1 7.76 7.76 7.759 7.759 0 0 1-7.759 7.76z"></path><path fill="#232323" d="M416.26 475.374c-3.728 0-6.76-3.033-6.76-6.76s3.033-6.76 6.76-6.76h48.479c3.728 0 6.76 3.033 6.76 6.76s-3.033 6.76-6.76 6.76H416.26z"></path><path fill="#2d2d2d" d="M464.74 502.391h-48.48a7.76 7.76 0 0 1-7.76-7.76 7.76 7.76 0 0 1 7.76-7.76h48.479a7.76 7.76 0 0 1 7.76 7.76 7.758 7.758 0 0 1-7.759 7.76z"></path><path fill="#232323" d="M416.26 502.391a6.768 6.768 0 0 1-6.76-6.76 6.768 6.768 0 0 1 6.76-6.761h48.479a6.768 6.768 0 0 1 6.76 6.761 6.768 6.768 0 0 1-6.76 6.76H416.26z"></path><path fill="#2d2d2d" d="M464.74 529.408h-48.48a7.76 7.76 0 0 1-7.76-7.76 7.76 7.76 0 0 1 7.76-7.76h48.479a7.76 7.76 0 0 1 7.76 7.76 7.758 7.758 0 0 1-7.759 7.76z"></path><path fill="#232323" d="M416.26 529.409c-3.728 0-6.76-3.033-6.76-6.761s3.033-6.76 6.76-6.76h48.479c3.728 0 6.76 3.032 6.76 6.76s-3.033 6.761-6.76 6.761H416.26z"></path><path fill="#2d2d2d" stroke="#2d2d2d" stroke-miterlimit="10" stroke-width="6" d="M396.5 591.455a7 7 0 0 1-7-7v-11.333h14v11.333a7 7 0 0 1-7 7z"></path></svg>