<svg xmlns="http://www.w3.org/2000/svg" enable-background="new 0 0 1000 1000" viewBox="0 0 1000 1000" id="hard-disk-drive"><rect width="1000" height="1000" fill="#00c2e8"></rect><path fill="#232323" stroke="#232323" stroke-linecap="round" stroke-linejoin="round" stroke-miterlimit="10" stroke-width="6" d="
	M606.149,358.815h-32c-5.523,0-10,4.477-10,10v11c0,5.523-4.477,10-10,10h-104c-5.523,0-10-4.477-10-10v-11c0-5.523-4.477-10-10-10
	h-32c-7.732,0-14,6.268-14,14v303c0,7.732,6.268,14,14,14h208c7.732,0,14-6.268,14-14v-303
	C620.149,365.083,613.881,358.815,606.149,358.815z" opacity=".2"></path><g><path fill="#dcd6e2" d="M550.426,354.5v-5c0-3.866-3.134-7-7-7h-42c-3.866,0-7,3.134-7,7v5
		c0,3.866-3.134,7-7,7l0,0c-3.866,0-7-3.134-7-7v-5c0-3.866-3.134-7-7-7h-14c-3.866,0-7,3.134-7,7v5c0,3.866-3.134,7-7,7h-12.629
		c-3.866,0-7,3.134-7,7v5h152v-5c0-3.866-3.134-7-7-7h-13.371C553.56,361.5,550.426,358.366,550.426,354.5z"></path><path fill="#c3bace" d="M425.797,368.5v5h152v-5c0-1.488-0.468-2.866-1.26-4h-149.48
		C426.265,365.634,425.797,367.012,425.797,368.5z"></path><path fill="none" stroke="#4b5181" stroke-linecap="round" stroke-linejoin="round" stroke-miterlimit="10" stroke-width="4" d="
		M550.426,354.5v-5c0-3.866-3.134-7-7-7h-42c-3.866,0-7,3.134-7,7v5c0,3.866-3.134,7-7,7l0,0c-3.866,0-7-3.134-7-7v-5
		c0-3.866-3.134-7-7-7h-14c-3.866,0-7,3.134-7,7v5c0,3.866-3.134,7-7,7h-12.629c-3.866,0-7,3.134-7,7v5h152v-5c0-3.866-3.134-7-7-7
		h-13.371C553.56,361.5,550.426,358.366,550.426,354.5z"></path><path fill="#787296" d="M606.149,342.5h-32c-5.523,0-10,4.477-10,10v11c0,5.523-4.477,10-10,10h-104
		c-5.523,0-10-4.477-10-10v-11c0-5.523-4.477-10-10-10h-32c-7.732,0-14,6.268-14,14v303c0,7.732,6.268,14,14,14h208
		c7.732,0,14-6.268,14-14v-303C620.149,348.768,613.881,342.5,606.149,342.5z"></path><path fill="#676289" d="M606.149,342.5h-32c-5.523,0-10,4.477-10,10v11c0,5.523-4.477,10-10,10h-104
		c-5.523,0-10-4.477-10-10v-11c0-5.523-4.477-10-10-10h-32c-7.732,0-14,6.268-14,14v303c0,7.732,6.268,14,14,14h208
		c7.732,0,14-6.268,14-14v-303C620.149,348.768,613.881,342.5,606.149,342.5z"></path><path fill="#787296" d="M398.148,664.5c-2.757,0-5-2.243-5-5v-303c0-2.757,2.243-5,5-5h32
		c0.551,0,1,0.449,1,1v11c0,10.477,8.523,19,19,19h104c10.477,0,19-8.523,19-19v-11c0-0.551,0.448-1,1-1h32c2.757,0,5,2.243,5,5v303
		c0,2.757-2.243,5-5,5H398.148z"></path><path fill="#4b5181" d="M419.501,609.458v-34.437l12.402-20.02c3.514-5.673,2.954-12.91-1.249-18.093
		c-0.024-0.029-0.047-0.058-0.071-0.088c-13.177-16.286-20.434-36.813-20.434-57.799c0-50.729,41.271-92,92-92s92,41.271,92,92
		c0,20.985-7.257,41.513-20.434,57.799c-0.023,0.029-0.047,0.058-0.07,0.087c-4.204,5.183-4.765,12.421-1.25,18.094l12.402,20.02
		v34.437c-6.248,6.248-9.752,9.752-16,16H435.501C429.252,619.21,425.749,615.706,419.501,609.458z"></path><path fill="#62af97" d="M527.13,566.5c-7.81,7.81-12.19,12.19-20,20v31.667h48.333
		c7.81-7.81,12.19-12.19,20-20V566.5H527.13z"></path><path fill="none" stroke="#4b5181" stroke-linecap="round" stroke-linejoin="round" stroke-miterlimit="10" stroke-width="8" d="
		M419.501,609.458v-34.437l12.402-20.02c3.514-5.673,2.954-12.91-1.249-18.093c-0.024-0.029-0.047-0.058-0.071-0.088
		c-13.177-16.286-20.434-36.813-20.434-57.799c0-50.729,41.271-92,92-92s92,41.271,92,92c0,20.985-7.257,41.513-20.434,57.799
		c-0.023,0.029-0.047,0.058-0.07,0.087c-4.204,5.183-4.765,12.421-1.25,18.094l12.402,20.02v34.437c-6.248,6.248-9.752,9.752-16,16
		H435.501C429.252,619.21,425.749,615.706,419.501,609.458z"></path><path fill="none" stroke="#4b5181" stroke-linecap="round" stroke-linejoin="round" stroke-miterlimit="10" stroke-width="6" d="
		M606.149,342.5h-32c-5.523,0-10,4.477-10,10v11c0,5.523-4.477,10-10,10h-104c-5.523,0-10-4.477-10-10v-11c0-5.523-4.477-10-10-10
		h-32c-7.732,0-14,6.268-14,14v303c0,7.732,6.268,14,14,14h208c7.732,0,14-6.268,14-14v-303
		C620.149,348.768,613.881,342.5,606.149,342.5z"></path><g><g><line x1="470.547" x2="470.547" y1="342.5" y2="358.5" fill="none" stroke="#4b5181" stroke-linecap="round" stroke-linejoin="round" stroke-miterlimit="10" stroke-width="4"></line></g><g><line x1="461.547" x2="461.547" y1="342.5" y2="358.5" fill="none" stroke="#4b5181" stroke-linecap="round" stroke-linejoin="round" stroke-miterlimit="10" stroke-width="4"></line></g></g><g><g><line x1="539.63" x2="539.63" y1="342.5" y2="358.5" fill="none" stroke="#4b5181" stroke-linecap="round" stroke-linejoin="round" stroke-miterlimit="10" stroke-width="4"></line></g><g><line x1="530.63" x2="530.63" y1="342.5" y2="358.5" fill="none" stroke="#4b5181" stroke-linecap="round" stroke-linejoin="round" stroke-miterlimit="10" stroke-width="4"></line></g><g><line x1="521.63" x2="521.63" y1="342.5" y2="358.5" fill="none" stroke="#4b5181" stroke-linecap="round" stroke-linejoin="round" stroke-miterlimit="10" stroke-width="4"></line></g><g><line x1="512.63" x2="512.63" y1="342.5" y2="358.5" fill="none" stroke="#4b5181" stroke-linecap="round" stroke-linejoin="round" stroke-miterlimit="10" stroke-width="4"></line></g><g><line x1="503.63" x2="503.63" y1="342.5" y2="358.5" fill="none" stroke="#4b5181" stroke-linecap="round" stroke-linejoin="round" stroke-miterlimit="10" stroke-width="4"></line></g></g><circle cx="502.149" cy="479.021" r="80" fill="#b1cede"></circle><circle cx="502.149" cy="479.021" r="80" fill="#c1cee0"></circle><path fill="#f2f6f7" d="M546.103 415.828l-122.048 85.394c2.262 9.331 6.19 18.169 11.55 26.092l131.058-91.699C561.126 427.937 554.2 421.204 546.103 415.828zM453.099 545.909l125.015-87.471c-1.443-4.571-3.287-8.998-5.513-13.229l-130.032 90.981C445.76 539.714 449.275 542.973 453.099 545.909z" opacity=".69"></path><circle cx="502.149" cy="479.021" r="25.055" fill="#4b5181"></circle><circle cx="502.149" cy="479.021" r="11.021" fill="#525a89"></circle><circle cx="502.149" cy="479.021" r="80" fill="none" stroke="#4b5181" stroke-linecap="round" stroke-linejoin="round" stroke-miterlimit="10" stroke-width="6"></circle><line x1="541.117" x2="541.117" y1="572" y2="580.981" fill="none" stroke="#c1c9f4" stroke-linecap="round" stroke-linejoin="round" stroke-miterlimit="10" stroke-width="3"></line><line x1="545.86" x2="545.86" y1="572" y2="580.981" fill="none" stroke="#c1c9f4" stroke-linecap="round" stroke-linejoin="round" stroke-miterlimit="10" stroke-width="3"></line><line x1="550.604" x2="550.604" y1="572" y2="580.981" fill="none" stroke="#c1c9f4" stroke-linecap="round" stroke-linejoin="round" stroke-miterlimit="10" stroke-width="3"></line><line x1="541.117" x2="541.117" y1="600.27" y2="609.25" fill="none" stroke="#c1c9f4" stroke-linecap="round" stroke-linejoin="round" stroke-miterlimit="10" stroke-width="3"></line><line x1="545.86" x2="545.86" y1="600.27" y2="609.25" fill="none" stroke="#c1c9f4" stroke-linecap="round" stroke-linejoin="round" stroke-miterlimit="10" stroke-width="3"></line><line x1="550.604" x2="550.604" y1="600.27" y2="609.25" fill="none" stroke="#c1c9f4" stroke-linecap="round" stroke-linejoin="round" stroke-miterlimit="10" stroke-width="3"></line><line x1="564.39" x2="555.41" y1="585.85" y2="585.85" fill="none" stroke="#c1c9f4" stroke-linecap="round" stroke-linejoin="round" stroke-miterlimit="10" stroke-width="3"></line><line x1="564.39" x2="555.41" y1="590.593" y2="590.593" fill="none" stroke="#c1c9f4" stroke-linecap="round" stroke-linejoin="round" stroke-miterlimit="10" stroke-width="3"></line><line x1="564.39" x2="555.41" y1="595.337" y2="595.337" fill="none" stroke="#c1c9f4" stroke-linecap="round" stroke-linejoin="round" stroke-miterlimit="10" stroke-width="3"></line><line x1="536.184" x2="527.204" y1="585.85" y2="585.85" fill="none" stroke="#c1c9f4" stroke-linecap="round" stroke-linejoin="round" stroke-miterlimit="10" stroke-width="3"></line><line x1="536.184" x2="527.204" y1="590.593" y2="590.593" fill="none" stroke="#c1c9f4" stroke-linecap="round" stroke-linejoin="round" stroke-miterlimit="10" stroke-width="3"></line><line x1="536.184" x2="527.204" y1="595.337" y2="595.337" fill="none" stroke="#c1c9f4" stroke-linecap="round" stroke-linejoin="round" stroke-miterlimit="10" stroke-width="3"></line><path fill="#c3bace" d="M477.63,572.956h-56.85l-1.28,2.066v34.437c6.248,6.248,9.752,9.752,16,16h42.13
		V572.956z"></path><polygon fill="#e4e1ea" points="437.986 619.458 425.5 606.973 425.5 572.956 477.63 572.956 477.63 619.458"></polygon><path fill="none" stroke="#4b5181" stroke-linecap="round" stroke-linejoin="round" stroke-miterlimit="10" stroke-width="4" d="
		M477.63,572.956h-56.85l-1.28,2.066v34.437c6.248,6.248,9.752,9.752,16,16h42.13V572.956z"></path><g><circle cx="410.149" cy="387.021" r="8" fill="#ddd7e3"></circle><circle cx="410.149" cy="387.021" r="8" fill="none" stroke="#4b5181" stroke-linecap="round" stroke-linejoin="round" stroke-miterlimit="10" stroke-width="4"></circle><line x1="406.88" x2="413.13" y1="387.021" y2="387.021" fill="none" stroke="#4b5181" stroke-linecap="round" stroke-linejoin="round" stroke-miterlimit="10" stroke-width="4"></line><line x1="410.005" x2="410.005" y1="383.896" y2="390.146" fill="none" stroke="#4b5181" stroke-linecap="round" stroke-linejoin="round" stroke-miterlimit="10" stroke-width="4"></line></g><g><circle cx="594.149" cy="387.021" r="8" fill="#ddd7e3"></circle><circle cx="594.149" cy="387.021" r="8" fill="none" stroke="#4b5181" stroke-linecap="round" stroke-linejoin="round" stroke-miterlimit="10" stroke-width="4"></circle><line x1="590.88" x2="597.13" y1="387.021" y2="387.021" fill="none" stroke="#4b5181" stroke-linecap="round" stroke-linejoin="round" stroke-miterlimit="10" stroke-width="4"></line><line x1="594.005" x2="594.005" y1="383.896" y2="390.146" fill="none" stroke="#4b5181" stroke-linecap="round" stroke-linejoin="round" stroke-miterlimit="10" stroke-width="4"></line></g><g><circle cx="594.149" cy="544.975" r="8" fill="#ddd7e3"></circle><circle cx="594.149" cy="544.975" r="8" fill="none" stroke="#4b5181" stroke-linecap="round" stroke-linejoin="round" stroke-miterlimit="10" stroke-width="4"></circle><line x1="590.88" x2="597.13" y1="544.975" y2="544.975" fill="none" stroke="#4b5181" stroke-linecap="round" stroke-linejoin="round" stroke-miterlimit="10" stroke-width="4"></line><line x1="594.005" x2="594.005" y1="541.85" y2="548.1" fill="none" stroke="#4b5181" stroke-linecap="round" stroke-linejoin="round" stroke-miterlimit="10" stroke-width="4"></line></g><g><circle cx="594.149" cy="642.167" r="8" fill="#ddd7e3"></circle><circle cx="594.149" cy="642.167" r="8" fill="none" stroke="#4b5181" stroke-linecap="round" stroke-linejoin="round" stroke-miterlimit="10" stroke-width="4"></circle><line x1="590.88" x2="597.13" y1="642.167" y2="642.167" fill="none" stroke="#4b5181" stroke-linecap="round" stroke-linejoin="round" stroke-miterlimit="10" stroke-width="4"></line><line x1="594.005" x2="594.005" y1="639.042" y2="645.292" fill="none" stroke="#4b5181" stroke-linecap="round" stroke-linejoin="round" stroke-miterlimit="10" stroke-width="4"></line></g><g><circle cx="410.148" cy="642.167" r="8" fill="#ddd7e3"></circle><circle cx="410.148" cy="642.167" r="8" fill="none" stroke="#4b5181" stroke-linecap="round" stroke-linejoin="round" stroke-miterlimit="10" stroke-width="4"></circle><line x1="406.88" x2="413.13" y1="642.167" y2="642.167" fill="none" stroke="#4b5181" stroke-linecap="round" stroke-linejoin="round" stroke-miterlimit="10" stroke-width="4"></line><line x1="410.005" x2="410.005" y1="639.042" y2="645.292" fill="none" stroke="#4b5181" stroke-linecap="round" stroke-linejoin="round" stroke-miterlimit="10" stroke-width="4"></line></g><g><circle cx="410.148" cy="544.975" r="8" fill="#ddd7e3"></circle><circle cx="410.148" cy="544.975" r="8" fill="none" stroke="#4b5181" stroke-linecap="round" stroke-linejoin="round" stroke-miterlimit="10" stroke-width="4"></circle><line x1="406.88" x2="413.13" y1="544.975" y2="544.975" fill="none" stroke="#4b5181" stroke-linecap="round" stroke-linejoin="round" stroke-miterlimit="10" stroke-width="4"></line><line x1="410.005" x2="410.005" y1="541.85" y2="548.1" fill="none" stroke="#4b5181" stroke-linecap="round" stroke-linejoin="round" stroke-miterlimit="10" stroke-width="4"></line></g><path fill="#f8db97" d="M543.229,504.704l-77.67,100.003c-5.93,7.635-17.107,8.599-24.256,2.092l0,0
		c-7.149-6.507-7.238-17.725-0.194-24.346l92.274-86.711c2.54-2.387,6.489-2.419,9.067-0.072l0,0
		C545.028,498.016,545.368,501.951,543.229,504.704z"></path><path fill="#e0ba77" d="M542.45,495.67c-0.934-0.85-2.051-1.379-3.213-1.605
		c0.687,2.054,0.363,4.393-1.052,6.215l-77.67,100.003c-5.152,6.633-14.261,8.223-21.252,4.261c0.604,0.795,1.273,1.556,2.04,2.254
		h0c7.149,6.507,18.326,5.543,24.256-2.092l77.67-100.003C545.368,501.951,545.028,498.016,542.45,495.67z"></path><path fill="none" stroke="#4b5181" stroke-linecap="round" stroke-linejoin="round" stroke-miterlimit="10" stroke-width="4" d="
		M543.229,504.704l-77.67,100.003c-5.93,7.635-17.107,8.599-24.256,2.092l0,0c-7.149-6.507-7.238-17.725-0.194-24.346l92.274-86.711
		c2.54-2.387,6.489-2.419,9.067-0.072l0,0C545.028,498.016,545.368,501.951,543.229,504.704z"></path><path fill="#525a89" d="M556.9,604.697h-22.206c-1.657,0-3-1.343-3-3V579.49c0-1.657,1.343-3,3-3H556.9
		c1.657,0,3,1.343,3,3v22.206C559.9,603.353,558.557,604.697,556.9,604.697z"></path><path fill="none" stroke="#4b5181" stroke-linecap="round" stroke-linejoin="round" stroke-miterlimit="10" stroke-width="4" d="
		M556.9,604.697h-22.206c-1.657,0-3-1.343-3-3V579.49c0-1.657,1.343-3,3-3H556.9c1.657,0,3,1.343,3,3v22.206
		C559.9,603.353,558.557,604.697,556.9,604.697z"></path><circle cx="452.463" cy="593.883" r="8.033" fill="#4b5181"></circle><circle cx="452.463" cy="593.883" r="4.932" fill="#525a89"></circle><circle cx="427.899" cy="583.415" r="2.435" fill="none" stroke="#4b5181" stroke-linecap="round" stroke-linejoin="round" stroke-miterlimit="10" stroke-width="4"></circle><circle cx="466.914" cy="615.732" r="2.435" fill="none" stroke="#4b5181" stroke-linecap="round" stroke-linejoin="round" stroke-miterlimit="10" stroke-width="4"></circle><circle cx="502.13" cy="462.105" r="2.833" fill="#ddd7e3" opacity=".3"></circle><circle cx="502.13" cy="495.938" r="2.833" fill="#ddd7e3" opacity=".3"></circle><circle cx="519.047" cy="479.021" r="2.833" fill="#ddd7e3" opacity=".3"></circle><circle cx="485.214" cy="479.021" r="2.833" fill="#ddd7e3" opacity=".3"></circle></g></svg>