<svg xmlns="http://www.w3.org/2000/svg" enable-background="new 0 0 1000 1000" viewBox="0 0 1000 1000" id="ipod"><path fill="#f72d5c" d="M0 0h1000v1000H0z"></path><path d="M782.214 496.068c0-9.286 7.598-16.884 16.884-16.884h2.254V437.58h-17.196c-15.318 0-27.736 12.418-27.736 27.736v55.472a4.16 4.16 0 0 0 4.16 4.16h17.474a4.16 4.16 0 0 0 4.16-4.16v-24.72z" opacity=".23"></path><path d="M801.351 445.485h13.313v27.458h-13.313zM826.736 486.881h-6.115a5.957 5.957 0 0 1-5.956-5.956v-43.421a5.957 5.957 0 0 1 5.956-5.956h6.115c13.093 0 23.708 10.614 23.708 23.708v7.917c0 13.094-10.615 23.708-23.708 23.708z" opacity=".23"></path><path d="M559.214 863.174c0 9.286 7.598 16.884 16.884 16.884h2.254v41.604h-17.196c-15.318 0-27.736-12.418-27.736-27.736v-55.472a4.16 4.16 0 0 1 4.16-4.16h17.474a4.16 4.16 0 0 1 4.16 4.16v24.72z" opacity=".21"></path><path d="M578.351 886.299h13.313v27.458h-13.313zM603.736 872.362h-6.115a5.957 5.957 0 0 0-5.956 5.956v43.421a5.957 5.957 0 0 0 5.956 5.956h6.115c13.093 0 23.708-10.614 23.708-23.708v-7.917c0-13.094-10.615-23.708-23.708-23.708z" opacity=".21"></path><path d="M549 841h-6v-78.675C543 730.716 568.716 705 600.325 705c13.728 0 26.628-5.351 36.325-15.065 9.698-9.716 15.025-22.626 15-36.354l-.067-36.825 6-.012.067 36.825c.028 15.333-5.922 29.753-16.753 40.604C630.065 705.024 615.657 711 600.325 711 572.024 711 549 734.024 549 762.325V841z" opacity=".23"></path><path d="M712.5 696.372c-33.359 0-60.5-27.141-60.5-60.5v-18.5a3 3 0 1 1 6 0v18.5c0 30.052 24.448 54.5 54.5 54.5s54.5-24.448 54.5-54.5v-111.5a3 3 0 1 1 6 0v111.5c0 33.359-27.141 60.5-60.5 60.5z" opacity=".23"></path><path fill="#eef2f4" d="M549 830h-6v-78.675C543 719.716 568.716 694 600.325 694c13.728 0 26.628-5.351 36.325-15.065 9.698-9.716 15.025-22.626 15-36.354l-.067-59.825 6-.012.067 59.825c.028 15.333-5.922 29.753-16.753 40.604C630.065 694.024 615.657 700 600.325 700 572.024 700 549 723.024 549 751.325V830z"></path><path fill="none" stroke="#4c005f" stroke-linecap="round" stroke-linejoin="round" stroke-miterlimit="10" stroke-width="3" d="M549 830h-6v-78.675C543 719.716 568.716 694 600.325 694c13.728 0 26.628-5.351 36.325-15.065 9.698-9.716 15.025-22.626 15-36.354l-.067-59.825 6-.012.067 59.825c.028 15.333-5.922 29.753-16.753 40.604C630.065 694.024 615.657 700 600.325 700 572.024 700 549 723.024 549 751.325V830z"></path><path fill="#eef2f4" d="M712.5 685c-33.359 0-60.5-27.141-60.5-60.5V583a3 3 0 1 1 6 0v41.5c0 30.052 24.448 54.5 54.5 54.5s54.5-24.448 54.5-54.5V513a3 3 0 1 1 6 0v111.5c0 33.359-27.141 60.5-60.5 60.5z"></path><path fill="none" stroke="#4c005f" stroke-linecap="round" stroke-linejoin="round" stroke-miterlimit="10" stroke-width="3" d="M712.5 685c-33.359 0-60.5-27.141-60.5-60.5V583a3 3 0 1 1 6 0v41.5c0 30.052 24.448 54.5 54.5 54.5s54.5-24.448 54.5-54.5V513a3 3 0 1 1 6 0v111.5c0 33.359-27.141 60.5-60.5 60.5z"></path><path d="M654.714 548.293a3 3 0 0 1-3-3V249.96c0-24.078-19.589-43.667-43.666-43.667-24.078 0-43.667 19.589-43.667 43.667v104.366c0 27-21.967 48.967-48.967 48.967h-1.399c-13.08 0-25.377-5.093-34.625-14.342s-14.342-21.545-14.342-34.625V191.96c0-24.078-19.589-43.667-43.667-43.667s-43.667 19.589-43.667 43.667v208.333a3 3 0 1 1-6 0V191.96c0-27.386 22.281-49.667 49.667-49.667 27.387 0 49.667 22.281 49.667 49.667v162.366c0 11.477 4.469 22.267 12.584 30.382s18.905 12.584 30.383 12.584h1.399c23.692 0 42.967-19.275 42.967-42.967V249.96c0-27.386 22.28-49.667 49.666-49.667 27.387 0 49.667 22.281 49.667 49.667v295.333a3 3 0 0 1-3 3z" opacity=".23"></path><path fill="#eef2f4" d="M655.042 537.621a3 3 0 0 1-3-3V239.288c0-24.078-19.589-43.667-43.666-43.667-24.078 0-43.667 19.589-43.667 43.667v104.366c0 27-21.967 48.967-48.967 48.967h-1.399c-13.08 0-25.377-5.093-34.625-14.342s-14.342-21.545-14.342-34.625V181.288c0-24.078-19.589-43.667-43.667-43.667s-43.667 19.589-43.667 43.667v208.333a3 3 0 1 1-6 0V181.288c0-27.386 22.281-49.667 49.667-49.667 27.387 0 49.667 22.281 49.667 49.667v162.366c0 11.477 4.469 22.267 12.584 30.382s18.905 12.584 30.383 12.584h1.399c23.692 0 42.967-19.275 42.967-42.967V239.288c0-27.386 22.28-49.667 49.666-49.667 27.387 0 49.667 22.281 49.667 49.667v295.333a3 3 0 0 1-3 3z"></path><path fill="none" stroke="#4c005f" stroke-linecap="round" stroke-linejoin="round" stroke-miterlimit="10" stroke-width="3" d="M655.042 537.621a3 3 0 0 1-3-3V239.288c0-24.078-19.589-43.667-43.666-43.667-24.078 0-43.667 19.589-43.667 43.667v104.366c0 27-21.967 48.967-48.967 48.967h-1.399c-13.08 0-25.377-5.093-34.625-14.342s-14.342-21.545-14.342-34.625V181.288c0-24.078-19.589-43.667-43.667-43.667s-43.667 19.589-43.667 43.667v208.333a3 3 0 1 1-6 0V181.288c0-27.386 22.281-49.667 49.667-49.667 27.387 0 49.667 22.281 49.667 49.667v162.366c0 11.477 4.469 22.267 12.584 30.382s18.905 12.584 30.383 12.584h1.399c23.692 0 42.967-19.275 42.967-42.967V239.288c0-27.386 22.28-49.667 49.666-49.667 27.387 0 49.667 22.281 49.667 49.667v295.333a3 3 0 0 1-3 3z"></path><path d="M369.354 386.333h24.396v32.333h-24.396z" opacity=".23"></path><path fill="#fde1ff" d="M362.937 382.333h24.396v32.333h-24.396z"></path><path fill="#fff" d="M362.937 382.333h24.396v13h-24.396z"></path><path fill="none" stroke="#4c005f" stroke-linecap="round" stroke-linejoin="round" stroke-miterlimit="10" stroke-width="3" d="M362.937 382.333h24.396v13h-24.396z"></path><path fill="none" stroke="#4c005f" stroke-linecap="round" stroke-linejoin="round" stroke-miterlimit="10" stroke-width="6" d="M362.937 382.333h24.396v32.333h-24.396z"></path><path d="M414.682 760.565H237.924c-11.096 0-20.092-8.995-20.092-20.092V455.025c0-11.095 8.995-20.09 20.09-20.09h176.759c11.096 0 20.092 8.995 20.092 20.092v285.447c0 11.096-8.995 20.091-20.091 20.091z" opacity=".23"></path><path fill="#eef2f4" d="M409.013 739.902H232.255c-11.096 0-20.092-8.995-20.092-20.092V434.362c0-11.095 8.995-20.09 20.09-20.09h176.759c11.096 0 20.092 8.995 20.092 20.092v285.447c.001 11.096-8.995 20.091-20.091 20.091z"></path><path fill="#eef2f4" d="M409.013 739.902H232.255c-11.096 0-20.092-8.995-20.092-20.092V434.362c0-11.095 8.995-20.09 20.09-20.09h176.759c11.096 0 20.092 8.995 20.092 20.092v285.447c.001 11.096-8.995 20.091-20.091 20.091z"></path><g opacity=".76"><path fill="#fff" d="M221.833 719.811V434.362c0-11.095 8.995-20.09 20.09-20.09h-9.669c-11.095 0-20.09 8.995-20.09 20.09v285.449c0 11.096 8.995 20.092 20.092 20.092h9.669c-11.097-.001-20.092-8.996-20.092-20.092z"></path></g><path d="M419.436 719.811V434.362c0-11.095-8.995-20.09-20.09-20.09h9.669c11.095 0 20.09 8.995 20.09 20.09v285.449c0 11.096-8.995 20.092-20.092 20.092h-9.669c11.097-.001 20.092-8.996 20.092-20.092z" opacity=".1"></path><path d="M409.013 726.902H232.255c-11.096 0-20.092-8.995-20.092-20.092v13c0 11.096 8.995 20.092 20.092 20.092h176.758c11.096 0 20.092-8.995 20.092-20.092v-13c0 11.097-8.996 20.092-20.092 20.092z" opacity=".04"></path><g opacity=".38"><path fill="#fff" d="M409.013 427.272H232.255c-11.096 0-20.092 8.995-20.092 20.092v-13c0-11.096 8.995-20.092 20.092-20.092h176.758c11.096 0 20.092 8.995 20.092 20.092v13c0-11.097-8.996-20.092-20.092-20.092z"></path></g><path fill="none" stroke="#4c005f" stroke-miterlimit="10" stroke-width="6" d="M409.013 739.902H232.255c-11.096 0-20.092-8.995-20.092-20.092V434.362c0-11.095 8.995-20.09 20.09-20.09h176.759c11.096 0 20.092 8.995 20.092 20.092v285.447c.001 11.096-8.995 20.091-20.091 20.091z"></path><path fill="#b296a3" d="M381.882 558.621H259.387c-6.825 0-12.357-5.533-12.357-12.357v-80.651c0-6.825 5.533-12.357 12.357-12.357h122.495c6.825 0 12.357 5.533 12.357 12.357v80.651c0 6.825-5.532 12.357-12.357 12.357z"></path><path fill="#eef2f4" d="M247 501.166 294.999 453h-6L247 495.166zM247 518.345 312.178 453h-10.246L247 508.099z" opacity=".2"></path><path fill="none" stroke="#4c005f" stroke-miterlimit="10" stroke-width="3" d="M381.882 558.621H259.387c-6.825 0-12.357-5.533-12.357-12.357v-80.651c0-6.825 5.533-12.357 12.357-12.357h122.495c6.825 0 12.357 5.533 12.357 12.357v80.651c0 6.825-5.532 12.357-12.357 12.357z"></path><path fill="#eef2f4" d="M559.214 850.174c0 9.286 7.598 16.884 16.884 16.884h2.254v41.604h-17.196c-15.318 0-27.736-12.418-27.736-27.736v-55.472a4.16 4.16 0 0 1 4.16-4.16h17.474a4.16 4.16 0 0 1 4.16 4.16v24.72z"></path><path d="M576.098 866.876c-9.404 0-17.098-7.694-17.098-17.098v-24.956a3.958 3.958 0 0 0-3.947-3.947H552V856.505c0 6.593 3.56 12.389 8.862 15.528 6.154 3.643 10.138 10.053 10.138 17.204v19.639h7v-42h-1.902z" opacity=".1"></path><path fill="none" stroke="#4c005f" stroke-linecap="round" stroke-linejoin="round" stroke-miterlimit="10" stroke-width="6" d="M559.214 850.174c0 9.286 7.598 16.884 16.884 16.884h2.254v41.604h-17.196c-15.318 0-27.736-12.418-27.736-27.736v-55.472a4.16 4.16 0 0 1 4.16-4.16h17.474a4.16 4.16 0 0 1 4.16 4.16v24.72z"></path><path fill="#d6dadc" d="M578.351 873.299h13.313v27.458h-13.313z"></path><path fill="none" stroke="#4c005f" stroke-linecap="round" stroke-linejoin="round" stroke-miterlimit="10" stroke-width="6" d="M578.351 873.299h13.313v27.458h-13.313zM603.736 859.362h-6.115a5.957 5.957 0 0 0-5.956 5.956v43.421a5.957 5.957 0 0 0 5.956 5.956h6.115c13.093 0 23.708-10.614 23.708-23.708v-7.917c0-13.094-10.615-23.708-23.708-23.708z"></path><path fill="#4c005f" d="M603.736 859.362h-6.115a5.957 5.957 0 0 0-5.956 5.956v43.421a5.957 5.957 0 0 0 5.956 5.956h6.115c13.093 0 23.708-10.614 23.708-23.708v-7.917c0-13.094-10.615-23.708-23.708-23.708z"></path><path fill="#eef2f4" d="M559.214 850.174c0 9.286 7.598 16.884 16.884 16.884h2.254v41.604h-17.196c-15.318 0-27.736-12.418-27.736-27.736v-55.472a4.16 4.16 0 0 1 4.16-4.16h17.474a4.16 4.16 0 0 1 4.16 4.16v24.72z"></path><path d="M576.098 866.876c-9.404 0-17.098-7.694-17.098-17.098v-24.956a3.958 3.958 0 0 0-3.947-3.947H552V856.505c0 6.593 3.56 12.389 8.862 15.528 6.154 3.643 10.138 10.053 10.138 17.204v19.639h7v-42h-1.902z" opacity=".1"></path><path fill="none" stroke="#4c005f" stroke-linecap="round" stroke-linejoin="round" stroke-miterlimit="10" stroke-width="6" d="M559.214 850.174c0 9.286 7.598 16.884 16.884 16.884h2.254v41.604h-17.196c-15.318 0-27.736-12.418-27.736-27.736v-55.472a4.16 4.16 0 0 1 4.16-4.16h17.474a4.16 4.16 0 0 1 4.16 4.16v24.72z"></path><path fill="#d6dadc" d="M578.351 873.299h13.313v27.458h-13.313z"></path><path fill="none" stroke="#4c005f" stroke-linecap="round" stroke-linejoin="round" stroke-miterlimit="10" stroke-width="6" d="M578.351 873.299h13.313v27.458h-13.313zM603.736 859.362h-6.115a5.957 5.957 0 0 0-5.956 5.956v43.421a5.957 5.957 0 0 0 5.956 5.956h6.115c13.093 0 23.708-10.614 23.708-23.708v-7.917c0-13.094-10.615-23.708-23.708-23.708z"></path><path fill="#4c005f" d="M603.736 859.362h-6.115a5.957 5.957 0 0 0-5.956 5.956v43.421a5.957 5.957 0 0 0 5.956 5.956h6.115c13.093 0 23.708-10.614 23.708-23.708v-7.917c0-13.094-10.615-23.708-23.708-23.708z"></path><path fill="#eef2f4" d="M782.214 484.068c0-9.286 7.598-16.884 16.884-16.884h2.254V425.58h-17.196c-15.318 0-27.736 12.418-27.736 27.736v55.472a4.16 4.16 0 0 0 4.16 4.16h17.474a4.16 4.16 0 0 0 4.16-4.16v-24.72z"></path><g opacity=".1"><path d="M776 487.685V511h2.053c2.298 0 3.947-1.914 3.947-4.212v-24.72c0-3.319.926-6.414 2.598-9.031-5.087 2.917-8.598 8.394-8.598 14.648zM784.155 426c-8.893 0-16.802 3.882-21.878 10.39 4.52-3.197 10.035-5.39 15.992-5.39 9.24 0 16.73 7.49 16.73 16.73v19.861c2-.26 2.851-.591 4.098-.591H801v-41h-16.845z"></path></g><path fill="none" stroke="#4c005f" stroke-linecap="round" stroke-linejoin="round" stroke-miterlimit="10" stroke-width="6" d="M782.214 484.068c0-9.286 7.598-16.884 16.884-16.884h2.254V425.58h-17.196c-15.318 0-27.736 12.418-27.736 27.736v55.472a4.16 4.16 0 0 0 4.16 4.16h17.474a4.16 4.16 0 0 0 4.16-4.16v-24.72z"></path><path fill="#d6dadc" d="M801.351 433.485h13.313v27.458h-13.313z"></path><path fill="none" stroke="#4c005f" stroke-linecap="round" stroke-linejoin="round" stroke-miterlimit="10" stroke-width="6" d="M801.351 433.485h13.313v27.458h-13.313zM826.736 474.881h-6.115a5.957 5.957 0 0 1-5.956-5.956v-43.421a5.957 5.957 0 0 1 5.956-5.956h6.115c13.093 0 23.708 10.614 23.708 23.708v7.917c0 13.094-10.615 23.708-23.708 23.708z"></path><path fill="#4c005f" d="M826.736 474.881h-6.115a5.957 5.957 0 0 1-5.956-5.956v-43.421a5.957 5.957 0 0 1 5.956-5.956h6.115c13.093 0 23.708 10.614 23.708 23.708v7.917c0 13.094-10.615 23.708-23.708 23.708z"></path><circle cx="320.839" cy="641.75" r="55" fill="#d7f0f4"></circle><path fill="#eef2f4" d="M320.839 596.75c28.689 0 52.236 21.969 54.763 50 .149-1.648.237-3.313.237-5 0-30.376-24.624-55-55-55s-55 24.624-55 55c0 1.687.088 3.352.237 5 2.527-28.031 26.074-50 54.763-50z" opacity=".63"></path><circle cx="320.839" cy="641.75" r="17" fill="#eef2f4"></circle><circle cx="320.839" cy="641.75" r="55" fill="none" stroke="#4c005f" stroke-miterlimit="10" stroke-width="3"></circle><path fill="#dbdcdd" d="M320.839 624.75c-9.389 0-17 7.611-17 17 0 4.878 2.066 9.265 5.358 12.365-.004-.122-.018-.242-.018-.365 0-6.44 5.221-11.661 11.661-11.661s11.66 5.221 11.66 11.661c0 .123-.015.243-.018.365 3.291-3.1 5.358-7.486 5.358-12.365-.001-9.389-7.612-17-17.001-17z"></path><circle cx="320.839" cy="641.75" r="17" fill="none" stroke="#4c005f" stroke-miterlimit="10" stroke-width="3"></circle><path fill="#4c005f" d="M312.676 610.351v-4.018l-1.53 4.018h-.692l-1.54-4.018v4.018h-1.567v-6.076h2.177l1.275 3.353 1.266-3.353h2.177v6.076h-1.566zM315.332 610.351v-6.076h4.455v1.366h-2.888v.947h2.824v1.367h-2.824v1.029h2.888v1.366h-4.455zM324.831 610.351l-2.569-3.517v3.517h-1.567v-6.076h1.613l2.459 3.344v-3.344h1.576v6.076h-1.512zM327.433 607.891v-3.616h1.594v3.562c0 .72.438 1.239 1.285 1.239.838 0 1.275-.52 1.275-1.239v-3.562h1.585v3.607c0 1.513-.911 2.578-2.86 2.578-1.949 0-2.879-1.075-2.879-2.569zM353 637.844l6.062 3.5-6.062 3.5z"></path><path fill="#4c005f" d="m347 637.844 6.062 3.5-6.062 3.5z"></path><path fill="#4c005f" d="M356.512 641.065h6.713v1.25h-6.713z" transform="rotate(90 359.869 641.69)"></path><path fill="#4c005f" d="m316 673.844 6.062 3.5-6.062 3.5z"></path><path fill="#4c005f" d="M319.278 676.892h6.713v1.25h-6.713z" transform="rotate(90 322.634 677.517)"></path><path fill="#4c005f" d="M321.519 676.892h6.713v1.25h-6.713z" transform="rotate(90 324.875 677.517)"></path><path fill="#4c005f" d="m288 637.844-6.062 3.5 6.062 3.5z"></path><path fill="#4c005f" d="m294 637.844-6.062 3.5 6.062 3.5z"></path><path fill="#4c005f" d="M278.269 641.065h6.713v1.25h-6.713z" transform="rotate(90 281.625 641.69)"></path><path fill="#eef2f4" d="M647.5 532H662v50.5h-14.5z"></path><path fill="none" stroke="#4c005f" stroke-linecap="round" stroke-linejoin="round" stroke-miterlimit="10" stroke-width="3" d="M647.5 532H662v50.5h-14.5z"></path></svg>