<svg xmlns="http://www.w3.org/2000/svg" enable-background="new 0 0 1000 1000" viewBox="0 0 1000 1000" id="gaming-mouse"><rect width="1000" height="1000" fill="#77c3b7"></rect><path fill="none" stroke="#579aa3" stroke-miterlimit="10" stroke-width="6" d="M501,282.594c0,0,0-32.67,0-58.254
	c0-16.569-13.431-29.996-30-29.996H308c-16.569,0-30-13.431-30-30v0c0-16.569,13.431-30,30-30h286.362c16.569,0,30-13.431,30-30v0
	c0-16.569-13.431-30-30-30H531c-16.569,0-30-13.43-30-29.998C501,26.772,501,0,501,0"></path><path fill="#579aa3" d="M510.833 295.594h-21.667c-1.565 0-2.833-1.269-2.833-2.833v-2.5c0-1.565 1.269-2.833 2.833-2.833h21.667c1.565 0 2.833 1.269 2.833 2.833v2.5C513.667 294.326 512.398 295.594 510.833 295.594zM510.417 282.761h-20.833c-1.795 0-3.25-1.455-3.25-3.25v-1.667c0-1.795 1.455-3.25 3.25-3.25h20.833c1.795 0 3.25 1.455 3.25 3.25v1.667C513.667 281.306 512.212 282.761 510.417 282.761z"></path><path fill="#579aa3" d="M509.917,288.813h-19.833c-1.243,0-2.25-1.007-2.25-2.25v-2.938
	c0-1.243,1.007-2.25,2.25-2.25h19.833c1.243,0,2.25,1.007,2.25,2.25v2.938C512.167,287.806,511.159,288.813,509.917,288.813z"></path><path fill="none" stroke="#2f3140" stroke-linejoin="round" stroke-miterlimit="10" stroke-width="8" d="M492,274.594
	c0,0,0-32.67,0-58.254c0-16.569-13.431-29.996-30-29.996H299c-16.569,0-30-13.431-30-30v0c0-16.569,13.431-30,30-30h286.362
	c16.569,0,30-13.431,30-30v0c0-16.569-13.431-30-30-30H522c-16.569,0-30-13.43-30-29.998C492,18.772,492,0,492,0"></path><path fill="#2f3140" d="M502.833 295.594h-21.667c-1.565 0-2.833-1.269-2.833-2.833v-2.5c0-1.565 1.269-2.833 2.833-2.833h21.667c1.565 0 2.833 1.269 2.833 2.833v2.5C505.667 294.326 504.398 295.594 502.833 295.594zM502.417 282.761h-20.833c-1.795 0-3.25-1.455-3.25-3.25v-1.667c0-1.795 1.455-3.25 3.25-3.25h20.833c1.795 0 3.25 1.455 3.25 3.25v1.667C505.667 281.306 504.212 282.761 502.417 282.761z"></path><path fill="#2f3140" d="M501.917,288.313h-19.833c-1.243,0-2.25-1.007-2.25-2.25v-1.938
	c0-1.243,1.007-2.25,2.25-2.25h19.833c1.243,0,2.25,1.007,2.25,2.25v1.938C504.167,287.306,503.159,288.313,501.917,288.313z"></path><path fill="#579aa3" stroke="#579aa3" stroke-miterlimit="10" stroke-width="6" d="M599.756,360.052
	c-1.489-3.526-3.572-6.726-5.905-9.577c-0.158-0.413-0.318-0.831-0.472-1.227c-5.642-14.428-21.84-23.355-21.84-23.355
	c-15.08-9.065-30.362-14.601-44.916-18.28c-3.786-0.957-7.456,1.921-7.456,5.825v17.823h-36v-17.823
	c0-3.905-3.671-6.782-7.456-5.825c-14.554,3.678-29.836,9.215-44.916,18.28c0,0-16.198,8.927-21.84,23.355
	c-5.074,12.975-11.988,35.03-18.302,61.354l-9.337,3.032c-4.87,21.146-9.288,44.702-12.107,68.481l8.71-2.689
	c-0.876,6.95-1.619,13.922-2.193,20.86l-8.514,2.237c-2.271,29.818-1.484,58.974,4.64,83.115l9.154,1.368
	c0.093,0.322,0.178,0.65,0.273,0.97c31.679,75.92,49.71,120.756,63.358,129.992c13.518,9.149,40.827,11.333,56.53,10.651
	c15.537,0.676,42.427-0.837,56.088-9.744l0,0c1.25-0.624,1.811-1.303,2.945-2.014c14.662-9.192,31.887-45.421,61.995-112.352
	l6.048-13.437l0.093-0.293C650.993,520.074,615.315,396.915,599.756,360.052z"></path><path fill="#7c7c94" d="M384,480.344h-11l-14.956,3.93c-2.271,29.818-1.484,58.974,4.64,83.115l29.816,4.455
	L384,480.344z"></path><path fill="none" stroke="#2f3140" stroke-linecap="round" stroke-linejoin="round" stroke-miterlimit="10" stroke-width="3" d="
	M384,480.344h-11l-14.956,3.93c-2.271,29.818-1.484,58.974,4.64,83.115l29.816,4.455L384,480.344z"></path><path fill="#7c7c94" d="M374.688,459.344l12.978-69l-15.518,5.04c-4.87,21.146-9.288,44.702-12.107,68.481
	L374.688,459.344z"></path><path fill="#6c6d81" d="M387 480.344h-11l-14.956 3.93c-2.271 29.818-1.484 58.974 4.64 83.115l29.816 4.455L387 480.344zM377.688 459.344l12.978-69-15.518 5.04c-4.87 21.146-9.288 44.702-12.107 68.481L377.688 459.344z"></path><path fill="none" stroke="#2f3140" stroke-linecap="round" stroke-linejoin="round" stroke-miterlimit="10" stroke-width="3" d="
	M374.688,459.344l12.978-69l-15.518,5.04c-4.87,21.146-9.288,44.702-12.107,68.481L374.688,459.344z"></path><path fill="#565864" d="M590.59,341.802c-6.33-14.993-23.344-24.17-25.068-25.069
	c-5.559-3.091-11.361-5.874-17.434-8.376v392.892c1.25-0.624,2.452-1.286,3.585-1.997c14.662-9.192,31.247-46.061,61.354-112.992
	l6.048-13.437l0.093-0.293C641.827,501.825,606.149,378.665,590.59,341.802z"></path><path fill="none" stroke="#2f3140" stroke-linecap="round" stroke-linejoin="round" stroke-miterlimit="10" stroke-width="3" d="
	M590.59,341.802c-6.33-14.993-23.344-24.17-25.068-25.069c-5.559-3.091-11.361-5.874-17.434-8.376v392.892
	c1.25-0.624,2.452-1.286,3.585-1.997c14.662-9.192,31.247-46.061,61.354-112.992l6.048-13.437l0.093-0.293
	C641.827,501.825,606.149,378.665,590.59,341.802z"></path><path fill="none" stroke="#c06d4f" stroke-linecap="round" stroke-linejoin="round" stroke-miterlimit="10" stroke-width="2" d="
	M482.04,359.344"></path><path fill="#51566a" d="M584.212,330.997c-5.642-14.428-21.84-23.355-21.84-23.355
	c-15.08-9.065-30.362-14.601-44.916-18.28c-3.786-0.957-7.456,1.921-7.456,5.825v17.823h-36v-17.823
	c0-3.905-3.671-6.782-7.456-5.825c-14.554,3.678-29.836,9.215-44.916,18.28c0,0-16.198,8.927-21.84,23.355
	c-15.686,40.116-48.977,166.968-27.676,238.729c31.679,75.92,49.71,120.756,63.358,129.992c13.518,9.149,40.827,11.333,56.53,10.651
	c15.703,0.683,43.012-1.502,56.53-10.651c13.647-9.236,31.679-54.072,63.358-129.992
	C633.189,497.965,599.899,371.113,584.212,330.997z"></path><path fill="#6c6d81" d="M579.302,390.344c0-26.105-2.249-51.271-6.413-74.926
	c-5.451-4.983-10.516-7.776-10.516-7.776c-15.08-9.065-30.362-14.601-44.916-18.28c-3.786-0.957-7.456,1.921-7.456,5.825v17.823h-36
	v-17.823c0-3.905-3.671-6.782-7.456-5.825c-14.554,3.678-29.836,9.215-44.916,18.28c0,0-16.198,8.927-21.84,23.355
	c-15.686,40.116-48.977,166.968-27.676,238.729c9.328,22.355,17.465,41.993,24.663,58.842c13.376,7.563,27.618,11.655,42.398,11.655
	C516.564,640.224,579.302,528.349,579.302,390.344z"></path><path fill="none" stroke="#2f3140" stroke-linecap="round" stroke-linejoin="round" stroke-miterlimit="10" stroke-width="6" d="
	M584.212,330.997c-5.642-14.428-21.84-23.355-21.84-23.355c-15.08-9.065-30.362-14.601-44.916-18.28
	c-3.786-0.957-7.456,1.921-7.456,5.825v17.823h-36v-17.823c0-3.905-3.671-6.782-7.456-5.825
	c-14.554,3.678-29.836,9.215-44.916,18.28c0,0-16.198,8.927-21.84,23.355c-15.686,40.116-48.977,166.968-27.676,238.729
	c31.679,75.92,49.71,120.756,63.358,129.992c13.518,9.149,40.827,11.333,56.53,10.651c15.703,0.683,43.012-1.502,56.53-10.651
	c13.647-9.236,31.679-54.072,63.358-129.992C633.189,497.965,599.899,371.113,584.212,330.997z"></path><path fill="none" stroke="#2f3140" stroke-linecap="round" stroke-linejoin="round" stroke-miterlimit="10" stroke-width="6" d="
	M474,307.079V295.02c0-3.856-3.621-6.698-7.362-5.762c-14.7,3.678-29.959,9.234-45.18,18.384c0,0-16.368,8.927-22.01,23.355
	c-9.155,23.412-24.263,76.367-31.053,130.672c-0.6,4.795,4.444,8.277,8.697,5.983c14.653-7.905,30.372-16.157,41.214-21.308
	c24.443-11.614,57.659-21.45,69.382-24.764c2.555-0.722,4.312-3.051,4.312-5.706v-96.932c0-3.276-2.656-5.932-5.932-5.932h-6.137
	C476.656,313.011,474,310.355,474,307.079z"></path><path fill="none" stroke="#2f3140" stroke-linecap="round" stroke-linejoin="round" stroke-miterlimit="10" stroke-width="6" d="
	M584.212,330.997c-5.642-14.428-21.84-23.355-21.84-23.355c-15.08-9.065-30.362-14.601-44.916-18.28
	c-3.786-0.957-7.456,1.921-7.456,5.825v17.823h-18v107.375c0,0,43.333,11.625,73.5,25.959c10.839,5.15,26.489,13.4,41.115,21.302
	c4.252,2.298,9.298-1.184,8.698-5.98C608.517,407.363,593.367,354.409,584.212,330.997z"></path><path fill="#7c7c94" d="M492,534.011L492,534.011c-9.941,0-18-8.059-18-18v-210
	c0-5.339,4.328-9.667,9.667-9.667h16.667c5.339,0,9.667,4.328,9.667,9.667v210C510,525.952,501.941,534.011,492,534.011z"></path><path fill="#9093a2" d="M510,352.344v-46.333c0-5.339-4.328-9.667-9.667-9.667h-16.667
	c-5.339,0-9.667,4.328-9.667,9.667v198.792L510,352.344z"></path><path fill="#3c4155" d="M499.854 468.594v-28.271c0-4.338-3.517-7.854-7.855-7.854s-7.855 3.517-7.855 7.854v28.271H499.854zM499.854 476.594v28.271c0 4.338-3.517 7.854-7.855 7.854s-7.855-3.517-7.855-7.854v-28.271H499.854z"></path><path fill="none" stroke="#2f3140" stroke-linecap="round" stroke-linejoin="round" stroke-miterlimit="10" stroke-width="6" d="
	M492,534.011L492,534.011c-9.941,0-18-8.059-18-18V306.094c0-5.385,4.365-9.75,9.75-9.75h16.5c5.385,0,9.75,4.365,9.75,9.75v209.917
	C510,525.952,501.941,534.011,492,534.011z"></path><path fill="#3b4254" d="M495.23,402.289h-6.46c-3.717,0-6.73-3.013-6.73-6.73v-44.486
	c0-3.717,3.013-6.73,6.73-6.73h6.46c3.717,0,6.73,3.013,6.73,6.73v44.486C501.959,399.276,498.946,402.289,495.23,402.289z"></path><g><g><line x1="483.091" x2="500.909" y1="396.469" y2="396.469" fill="none" stroke="#c06d4f" stroke-linecap="round" stroke-linejoin="round" stroke-miterlimit="10" stroke-width="2"></line></g><g><line x1="483.091" x2="500.909" y1="390.469" y2="390.469" fill="none" stroke="#c06d4f" stroke-linecap="round" stroke-linejoin="round" stroke-miterlimit="10" stroke-width="2"></line></g><g><line x1="483.091" x2="500.909" y1="384.469" y2="384.469" fill="none" stroke="#c06d4f" stroke-linecap="round" stroke-linejoin="round" stroke-miterlimit="10" stroke-width="2"></line></g><g><line x1="483.091" x2="500.909" y1="378.469" y2="378.469" fill="none" stroke="#c06d4f" stroke-linecap="round" stroke-linejoin="round" stroke-miterlimit="10" stroke-width="2"></line></g><g><line x1="483.091" x2="500.909" y1="372.469" y2="372.469" fill="none" stroke="#c06d4f" stroke-linecap="round" stroke-linejoin="round" stroke-miterlimit="10" stroke-width="2"></line></g><g><line x1="483.091" x2="500.909" y1="366.469" y2="366.469" fill="none" stroke="#c06d4f" stroke-linecap="round" stroke-linejoin="round" stroke-miterlimit="10" stroke-width="2"></line></g><g><line x1="483.091" x2="500.909" y1="360.469" y2="360.469" fill="none" stroke="#c06d4f" stroke-linecap="round" stroke-linejoin="round" stroke-miterlimit="10" stroke-width="2"></line></g><g><line x1="483.091" x2="500.909" y1="354.469" y2="354.469" fill="none" stroke="#c06d4f" stroke-linecap="round" stroke-linejoin="round" stroke-miterlimit="10" stroke-width="2"></line></g><g><line x1="483.091" x2="500.909" y1="348.469" y2="348.469" fill="none" stroke="#c06d4f" stroke-linecap="round" stroke-linejoin="round" stroke-miterlimit="10" stroke-width="2"></line></g></g><g><path fill="none" stroke="#2f3140" stroke-linecap="round" stroke-linejoin="round" stroke-miterlimit="10" stroke-width="3" d="
		M495.23,402.289c-2.153,0-4.306,0-6.46,0c-3.663,0-7.024-3.003-7.384-6.716c-1.253-14.811-1.253-29.702,0-44.514
		c0.36-3.713,3.722-6.716,7.384-6.716c2.153,0,4.306,0,6.46,0c3.663,0,7.024,3.003,7.384,6.716c1.253,14.811,1.253,29.702,0,44.514
		C502.254,399.286,498.892,402.289,495.23,402.289z"></path></g><path fill="none" stroke="#2f3140" stroke-linecap="round" stroke-linejoin="round" stroke-miterlimit="10" stroke-width="3" d="M496.98 402.289h-9.96c-2.75 0-4.98-2.229-4.98-4.98v-47.986c0-2.75 2.229-4.98 4.98-4.98h9.96c2.75 0 4.98 2.229 4.98 4.98v47.986C501.959 400.06 499.73 402.289 496.98 402.289zM499.854 468.594v-28.271c0-4.338-3.517-7.854-7.855-7.854s-7.855 3.517-7.855 7.854v28.271H499.854zM499.854 476.594v28.271c0 4.338-3.517 7.854-7.855 7.854s-7.855-3.517-7.855-7.854v-28.271H499.854z"></path></svg>