<svg xmlns="http://www.w3.org/2000/svg" enable-background="new 0 0 1000 1000" viewBox="0 0 1000 1000" id="ram"><path fill="#6b5465" d="M0 0h1000v1000H0z"></path><path fill="#353535" stroke="#353535" stroke-linecap="round" stroke-linejoin="round" stroke-miterlimit="10" stroke-width="6" d="M677 485.583V457a6 6 0 0 0-6-6H329a6 6 0 0 0-6 6v28.583c13.255 0 24 10.745 24 24s-10.745 24-24 24V593a2 2 0 0 0 2 2h204.361v-23h16.529v23H675a2 2 0 0 0 2-2v-59.417c-13.255 0-24-10.745-24-24s10.745-24 24-24zM342.194 572a9 9 0 0 1-9-9c0-4.971 4.029-9 9-9s9 4.029 9 9a9 9 0 0 1-9 9zm316-18a9 9 0 0 1 9 9c0 4.971-4.029 9-9 9s-9-4.029-9-9a9 9 0 0 1 9-9z" opacity=".31"></path><path fill="#14b0bf" d="M677 478.583V450a6 6 0 0 0-6-6H329a6 6 0 0 0-6 6v28.583c13.255 0 24 10.745 24 24s-10.745 24-24 24V586a2 2 0 0 0 2 2h204.361v-23h16.529v23H675a2 2 0 0 0 2-2v-59.417c-13.255 0-24-10.745-24-24s10.745-24 24-24zM342.194 565a9 9 0 0 1-9-9c0-4.971 4.029-9 9-9s9 4.029 9 9a9 9 0 0 1-9 9zm316-18a9 9 0 0 1 9 9c0 4.971-4.029 9-9 9s-9-4.029-9-9a9 9 0 0 1 9-9z"></path><path fill="#24c1c9" d="M677 453v-5.4c0-1.988-2.686-3.6-6-3.6H329c-3.314 0-6 1.612-6 3.6v5.4h354z"></path><path fill="#353535" d="M546.014 562H677v26H546.014z"></path><path fill="none" stroke="#353535" stroke-linecap="round" stroke-linejoin="round" stroke-miterlimit="10" stroke-width="7" d="M361.832 549.069h276.336"></path><circle cx="658.194" cy="556" r="9" fill="none" stroke="#194254" stroke-linecap="round" stroke-linejoin="round" stroke-miterlimit="10" stroke-width="6"></circle><path fill="#353535" d="M323 562h206.361v26H323z"></path><path fill="#fce18d" d="M519.843 588h-7.16a.92.92 0 0 1-.92-.92V569a3 3 0 0 1 3-3h3a3 3 0 0 1 3 3v18.08a.92.92 0 0 1-.92.92zM505.843 588h-7.16a.92.92 0 0 1-.92-.92V569a3 3 0 0 1 3-3h3a3 3 0 0 1 3 3v18.08a.92.92 0 0 1-.92.92zM491.843 588h-7.16a.92.92 0 0 1-.92-.92V569a3 3 0 0 1 3-3h3a3 3 0 0 1 3 3v18.08a.92.92 0 0 1-.92.92zM477.843 588h-7.16a.92.92 0 0 1-.92-.92V569a3 3 0 0 1 3-3h3a3 3 0 0 1 3 3v18.08a.92.92 0 0 1-.92.92zM463.843 588h-7.16a.92.92 0 0 1-.92-.92V569a3 3 0 0 1 3-3h3a3 3 0 0 1 3 3v18.08a.92.92 0 0 1-.92.92zM449.843 588h-7.16a.92.92 0 0 1-.92-.92V569a3 3 0 0 1 3-3h3a3 3 0 0 1 3 3v18.08a.92.92 0 0 1-.92.92zM435.843 588h-7.16a.92.92 0 0 1-.92-.92V569a3 3 0 0 1 3-3h3a3 3 0 0 1 3 3v18.08a.92.92 0 0 1-.92.92zM421.843 588h-7.16a.92.92 0 0 1-.92-.92V569a3 3 0 0 1 3-3h3a3 3 0 0 1 3 3v18.08a.92.92 0 0 1-.92.92zM407.843 588h-7.16a.92.92 0 0 1-.92-.92V569a3 3 0 0 1 3-3h3a3 3 0 0 1 3 3v18.08a.92.92 0 0 1-.92.92zM393.843 588h-7.16a.92.92 0 0 1-.92-.92V569a3 3 0 0 1 3-3h3a3 3 0 0 1 3 3v18.08a.92.92 0 0 1-.92.92zM379.843 588h-7.16a.92.92 0 0 1-.92-.92V569a3 3 0 0 1 3-3h3a3 3 0 0 1 3 3v18.08a.92.92 0 0 1-.92.92zM365.843 588h-7.16a.92.92 0 0 1-.92-.92V569a3 3 0 0 1 3-3h3a3 3 0 0 1 3 3v18.08a.92.92 0 0 1-.92.92zM647.556 588h-9v-19a3 3 0 0 1 3-3h3a3 3 0 0 1 3 3v19zM633.556 588h-9v-19a3 3 0 0 1 3-3h3a3 3 0 0 1 3 3v19zM619.556 588h-9v-19a3 3 0 0 1 3-3h3a3 3 0 0 1 3 3v19zM605.556 588h-9v-19a3 3 0 0 1 3-3h3a3 3 0 0 1 3 3v19zM591.556 588h-9v-19a3 3 0 0 1 3-3h3a3 3 0 0 1 3 3v19zM577.556 588h-9v-19a3 3 0 0 1 3-3h3a3 3 0 0 1 3 3v19zM563.556 588h-9v-19a3 3 0 0 1 3-3h3a3 3 0 0 1 3 3v19z"></path><path fill="none" stroke="#194254" stroke-linecap="round" stroke-linejoin="round" stroke-miterlimit="10" stroke-width="6" d="M653 502.583c0-12.012 8.825-21.963 20.345-23.723 2.082-.318 3.655-2.043 3.655-4.149v-20.529c0-5.623-4.559-10.182-10.182-10.182H333.182c-5.623 0-10.182 4.559-10.182 10.182v20.529c0 2.106 1.573 3.831 3.655 4.149 11.52 1.76 20.345 11.711 20.345 23.723 0 12.012-8.825 21.963-20.345 23.723-2.082.318-3.655 2.043-3.655 4.149v51.362a6.182 6.182 0 0 0 6.182 6.182h195.996a4.182 4.182 0 0 0 4.182-4.182V565h16.529v18.818a4.182 4.182 0 0 0 4.182 4.182h120.746a6.182 6.182 0 0 0 6.182-6.182v-51.362c0-2.106-1.573-3.831-3.655-4.149-11.519-1.76-20.344-11.711-20.344-23.724z"></path><circle cx="342.194" cy="556" r="9" fill="none" stroke="#194254" stroke-linecap="round" stroke-linejoin="round" stroke-miterlimit="10" stroke-width="6"></circle><path fill="#2c5871" d="M405.832 535.583h-34a4 4 0 0 1-4-4v-50a4 4 0 0 1 4-4h34a4 4 0 0 1 4 4v50a4 4 0 0 1-4 4z" opacity=".2"></path><path fill="none" stroke="#eae9da" stroke-linecap="round" stroke-linejoin="round" stroke-miterlimit="10" stroke-width="4" d="M361.832 526.583h6M361.832 518.583h6M361.832 510.583h6M361.832 502.583h6M361.832 494.583h6M361.832 486.583h6M361.832 478.583h6M409.832 526.583h6M409.832 518.583h6M409.832 510.583h6M409.832 502.583h6M409.832 494.583h6M409.832 486.583h6M409.832 478.583h6"></path><path fill="#2c5871" d="M405.832 531.583h-34a4 4 0 0 1-4-4v-50a4 4 0 0 1 4-4h34a4 4 0 0 1 4 4v50a4 4 0 0 1-4 4z"></path><path fill="#3d6d82" d="M371.832 525.862v-46.558c0-.95.771-1.721 1.721-1.721h30.558c.95 0 1.721.771 1.721 1.721v46.558c0 .95-.771 1.721-1.721 1.721h-30.558a1.72 1.72 0 0 1-1.721-1.721z"></path><path fill="none" stroke="#eae9da" stroke-linecap="round" stroke-linejoin="round" stroke-miterlimit="10" stroke-width="2" d="M378.527 488.667V516"></path><path fill="none" stroke="#eae9da" stroke-linecap="round" stroke-linejoin="round" stroke-miterlimit="10" d="M382.944 494.583v15.5M400.333 490.333v24"></path><path fill="#2c5871" d="M479.944 535.583h-34a4 4 0 0 1-4-4v-50a4 4 0 0 1 4-4h34a4 4 0 0 1 4 4v50a4 4 0 0 1-4 4z" opacity=".2"></path><path fill="none" stroke="#eae9da" stroke-linecap="round" stroke-linejoin="round" stroke-miterlimit="10" stroke-width="4" d="M435.944 526.583h6M435.944 518.583h6M435.944 510.583h6M435.944 502.583h6M435.944 494.583h6M435.944 486.583h6M435.944 478.583h6M483.944 526.583h6M483.944 518.583h6M483.944 510.583h6M483.944 502.583h6M483.944 494.583h6M483.944 486.583h6M483.944 478.583h6"></path><path fill="#2c5871" d="M479.944 531.583h-34a4 4 0 0 1-4-4v-50a4 4 0 0 1 4-4h34a4 4 0 0 1 4 4v50a4 4 0 0 1-4 4z"></path><path fill="#3d6d82" d="M445.944 525.862v-46.558c0-.95.771-1.721 1.721-1.721h30.558c.95 0 1.721.771 1.721 1.721v46.558c0 .95-.771 1.721-1.721 1.721h-30.558a1.72 1.72 0 0 1-1.721-1.721z"></path><path fill="none" stroke="#eae9da" stroke-linecap="round" stroke-linejoin="round" stroke-miterlimit="10" stroke-width="2" d="M452.64 488.667V516"></path><path fill="none" stroke="#eae9da" stroke-linecap="round" stroke-linejoin="round" stroke-miterlimit="10" d="M457.056 494.583v15.5M474.446 490.333v24"></path><path fill="#2c5871" d="M554.056 535.583h-34a4 4 0 0 1-4-4v-50a4 4 0 0 1 4-4h34a4 4 0 0 1 4 4v50a4 4 0 0 1-4 4z" opacity=".2"></path><path fill="none" stroke="#eae9da" stroke-linecap="round" stroke-linejoin="round" stroke-miterlimit="10" stroke-width="4" d="M510.056 526.583h6M510.056 518.583h6M510.056 510.583h6M510.056 502.583h6M510.056 494.583h6M510.056 486.583h6M510.056 478.583h6M558.056 526.583h6M558.056 518.583h6M558.056 510.583h6M558.056 502.583h6M558.056 494.583h6M558.056 486.583h6M558.056 478.583h6"></path><path fill="#2c5871" d="M554.056 531.583h-34a4 4 0 0 1-4-4v-50a4 4 0 0 1 4-4h34a4 4 0 0 1 4 4v50a4 4 0 0 1-4 4z"></path><path fill="#3d6d82" d="M520.056 525.862v-46.558c0-.95.771-1.721 1.721-1.721h30.558c.95 0 1.721.771 1.721 1.721v46.558c0 .95-.771 1.721-1.721 1.721h-30.558c-.95 0-1.721-.77-1.721-1.721z"></path><path fill="none" stroke="#eae9da" stroke-linecap="round" stroke-linejoin="round" stroke-miterlimit="10" stroke-width="2" d="M526.752 488.667V516"></path><path fill="none" stroke="#eae9da" stroke-linecap="round" stroke-linejoin="round" stroke-miterlimit="10" d="M531.169 494.583v15.5M548.558 490.333v24"></path><path fill="#2c5871" d="M628.168 535.583h-34a4 4 0 0 1-4-4v-50a4 4 0 0 1 4-4h34a4 4 0 0 1 4 4v50a4 4 0 0 1-4 4z" opacity=".2"></path><path fill="none" stroke="#eae9da" stroke-linecap="round" stroke-linejoin="round" stroke-miterlimit="10" stroke-width="4" d="M584.168 526.583h6M584.168 518.583h6M584.168 510.583h6M584.168 502.583h6M584.168 494.583h6M584.168 486.583h6M584.168 478.583h6M632.168 526.583h6M632.168 518.583h6M632.168 510.583h6M632.168 502.583h6M632.168 494.583h6M632.168 486.583h6M632.168 478.583h6"></path><path fill="#2c5871" d="M628.168 531.583h-34a4 4 0 0 1-4-4v-50a4 4 0 0 1 4-4h34a4 4 0 0 1 4 4v50a4 4 0 0 1-4 4z"></path><path fill="#3d6d82" d="M594.169 525.862v-46.558c0-.95.771-1.721 1.721-1.721h30.558c.95 0 1.721.771 1.721 1.721v46.558c0 .95-.771 1.721-1.721 1.721H595.89a1.72 1.72 0 0 1-1.721-1.721z"></path><path fill="none" stroke="#eae9da" stroke-linecap="round" stroke-linejoin="round" stroke-miterlimit="10" stroke-width="2" d="M600.864 488.667V516"></path><path fill="none" stroke="#eae9da" stroke-linecap="round" stroke-linejoin="round" stroke-miterlimit="10" d="M605.281 494.583v15.5M622.67 490.333v24"></path></svg>