<svg xmlns="http://www.w3.org/2000/svg" enable-background="new 0 0 1000 1000" viewBox="0 0 1000 1000" id="apple-watch"><path fill="#413e51" d="M0 0h1000v1000H0z"></path><ellipse cx="497.412" cy="719.946" fill="#2d2c3a" opacity=".86" rx="133.94" ry="18.554"></ellipse><path fill="#8e9091" d="M628.681 411.146h-3.221c-1.812 0-3.506.832-4.471 2.212-5.024 7.18-5.744 15.676-5.744 24.788 0 9.113.72 17.608 5.744 24.788.966 1.38 2.659 2.212 4.471 2.212h3.221c1.891 0 3.745-1.386 4.089-3.101 2.956-15.821 2.217-32.055 0-47.797-.243-1.73-2.197-3.102-4.089-3.102z"></path><path fill="#95a0c6" d="M628.681 411.146h-3.221c-1.812 0-3.506.832-4.471 2.212-5.024 7.18-5.744 15.676-5.744 24.788 0 9.113.72 17.608 5.744 24.788.966 1.38 2.659 2.212 4.471 2.212h3.221c1.891 0 3.745-1.386 4.089-3.101 2.956-15.821 2.217-32.055 0-47.797-.243-1.73-2.197-3.102-4.089-3.102z" opacity=".91"></path><path fill="none" stroke="#192244" stroke-linecap="round" stroke-linejoin="round" stroke-miterlimit="10" stroke-width="6" d="M628.681 411.146h-3.221c-1.812 0-3.506.832-4.471 2.212-5.024 7.18-5.744 15.676-5.744 24.788 0 9.113.72 17.608 5.744 24.788.966 1.38 2.659 2.212 4.471 2.212h3.221c1.891 0 3.745-1.386 4.089-3.101 2.956-15.821 2.217-32.055 0-47.797-.243-1.73-2.197-3.102-4.089-3.102z"></path><path fill="#55c9ff" d="M579.281 331.517c-3.389-11.293-3.831-21.796-4.201-28.801-.318-6.019-.144-24.013-5.107-29.152-4.444-4.602-8.506-7.81-28.483-10.774-10.831-1.607-27.834-3.679-43.828-3.952-15.994.274-32.997 2.345-43.828 3.952-19.977 2.963-24.039 6.172-28.483 10.774-4.963 5.139-4.789 23.133-5.107 29.152-.37 7.005-.812 17.508-4.201 28.801a98.241 98.241 0 0 1-6.037 15.322h175.312a98.241 98.241 0 0 1-6.037-15.322z"></path><path fill="none" stroke="#26a7bc" stroke-linecap="round" stroke-linejoin="round" stroke-miterlimit="10" stroke-width="4" d="M579.281 331.517c-3.389-11.293-3.831-21.796-4.201-28.801-.318-6.019-.144-24.013-5.107-29.152-4.444-4.602-8.506-7.81-28.483-10.774-10.831-1.607-27.834-3.679-43.828-3.952-15.994.274-32.997 2.345-43.828 3.952-19.977 2.963-24.039 6.172-28.483 10.774-4.963 5.139-4.789 23.133-5.107 29.152-.37 7.005-.812 17.508-4.201 28.801a98.241 98.241 0 0 1-6.037 15.322h175.312a98.241 98.241 0 0 1-6.037-15.322z"></path><path fill="#49c6f2" d="M579.281 651.634c-3.389 11.293-3.831 21.796-4.201 28.801-.318 6.019-.144 24.013-5.107 29.152-4.444 4.602-8.506 7.81-28.483 10.774-10.831 1.607-27.834 3.679-43.828 3.952-15.994-.274-32.997-2.345-43.828-3.952-19.977-2.963-24.039-6.172-28.483-10.774-4.963-5.139-4.789-23.133-5.107-29.152-.37-7.005-.812-17.508-4.201-28.801a98.241 98.241 0 0 0-6.037-15.322h175.312a98.241 98.241 0 0 0-6.037 15.322z"></path><path fill="#26a7bc" d="M410.005 636.312a98.242 98.242 0 0 1 5.771 14.5h163.77a98.242 98.242 0 0 1 5.771-14.5H410.005z"></path><path fill="none" stroke="#26a7bc" stroke-linecap="round" stroke-linejoin="round" stroke-miterlimit="10" stroke-width="4" d="M579.281 651.634c-3.389 11.293-3.831 21.796-4.201 28.801-.318 6.019-.144 24.013-5.107 29.152-4.444 4.602-8.506 7.81-28.483 10.774-10.831 1.607-27.834 3.679-43.828 3.952-15.994-.274-32.997-2.345-43.828-3.952-19.977-2.963-24.039-6.172-28.483-10.774-4.963-5.139-4.789-23.133-5.107-29.152-.37-7.005-.812-17.508-4.201-28.801a98.241 98.241 0 0 0-6.037-15.322h175.312a98.241 98.241 0 0 0-6.037 15.322z"></path><path fill="#404a6e" d="M577.105 636.312H417.72c-24.301 0-44-19.699-44-44v-202c0-24.301 19.699-44 44-44h159.385c24.301 0 44 19.699 44 44v202c0 24.301-19.7 44-44 44z"></path><path fill="#273052" d="M577.105 618.312H417.72c-24.301 0-44-19.699-44-44v18c0 24.301 19.699 44 44 44h159.385c24.3 0 44-19.699 44-44v-18c0 24.301-19.7 44-44 44z"></path><path fill="#404a6e" d="M389.303 592.312v-202c0-15.464 12.536-28 28-28h160.218c15.464 0 28 12.536 28 28v202c0 15.464-12.536 28-28 28H417.303c-15.464 0-28-12.536-28-28z"></path><path fill="none" stroke="#192244" stroke-linecap="round" stroke-linejoin="round" stroke-miterlimit="10" stroke-width="4" d="M389.303 592.312v-202c0-15.464 12.536-28 28-28h160.218c15.464 0 28 12.536 28 28v202c0 15.464-12.536 28-28 28H417.303c-15.464 0-28-12.536-28-28z"></path><path fill="#6d7493" d="M601.582 353.004c-6.998-4.225-15.417-6.692-24.477-6.692H417.72c-9.591 0-18.457 2.77-25.686 7.458 6.037 9.86 17.693 16.542 31.086 16.542h146.928c13.736 0 25.64-7.031 31.534-17.308zM629.924 499.229c-.03-1.657-1.577-3-3.449-3h-5.323v83.333h5.323c1.873 0 3.419-1.343 3.449-3 .426-25.776.426-51.557 0-77.333z" opacity=".91"></path><path fill="none" stroke="#192244" stroke-linecap="round" stroke-linejoin="round" stroke-miterlimit="10" stroke-width="6" d="M629.924 499.229c-.03-1.657-1.577-3-3.449-3h-5.323v83.333h5.323c1.873 0 3.419-1.343 3.449-3 .426-25.776.426-51.557 0-77.333z"></path><path fill="none" stroke="#192244" stroke-linecap="round" stroke-linejoin="round" stroke-miterlimit="10" stroke-width="7" d="M577.105 636.312H417.72c-24.301 0-44-19.699-44-44v-202c0-24.301 19.699-44 44-44h159.385c24.301 0 44 19.699 44 44v202c0 24.301-19.7 44-44 44z"></path><path fill="none" stroke="#f6537f" stroke-linecap="round" stroke-linejoin="round" stroke-miterlimit="10" stroke-width="4" d="M438.41 426.896v7.25a4 4 0 0 1-4 4h-15.333a4 4 0 0 1-4-4v-15.333a4 4 0 0 1 4-4h10.771"></path><path fill="none" stroke="#f6537f" stroke-linecap="round" stroke-linejoin="round" stroke-miterlimit="10" stroke-width="5" d="m421.79 423.457 5.876 5.875 10.744-13.328"></path><path fill="none" stroke="#f6537f" stroke-linejoin="round" stroke-miterlimit="10" stroke-width="2" d="M413.017 457.979h65.56"></path><path fill="#2ec2f1" d="M442.675 465.543v33.856c0 1.424-.076 2.74-.227 3.948-.152 1.209-.399 2.244-.745 3.107-.561 1.382-1.327 2.644-2.298 3.787s-2.104 2.114-3.398 2.913c-1.295.799-2.73 1.424-4.305 1.877a17.84 17.84 0 0 1-4.952.68c-5.222 0-9.473-2.396-12.752-7.186l8.286-8.48c.215 1.468.689 2.633 1.424 3.496.733.863 1.64 1.295 2.719 1.295 2.373 0 3.56-1.878 3.56-5.632v-33.662h12.688zM462.03 481.144v18.708c0 4.1 1.984 6.149 5.956 6.149 3.97 0 5.956-2.05 5.956-6.149v-18.708h11.717v20.974c0 4.488-1.479 7.854-4.434 10.099-2.957 2.243-7.37 3.365-13.238 3.365-5.87 0-10.283-1.122-13.238-3.365-2.957-2.244-4.434-5.61-4.434-10.099v-20.974h11.715zM514.076 489.689c-2.16-1.122-4.273-1.683-6.344-1.683-1.08 0-1.955.216-2.623.647-.67.432-1.004 1.015-1.004 1.748 0 .388.055.702.162.938.107.238.346.464.713.68.365.217.906.411 1.617.583.713.173 1.652.388 2.816.647 3.236.647 5.654 1.803 7.25 3.464 1.598 1.661 2.396 3.786 2.396 6.376 0 1.942-.389 3.689-1.166 5.243s-1.855 2.859-3.236 3.917c-1.383 1.058-3.043 1.877-4.984 2.46-1.941.582-4.078.873-6.408.873-4.49 0-8.913-1.272-13.271-3.819l4.272-8.285c3.28 2.244 6.386 3.366 9.321 3.366 1.078 0 1.963-.237 2.654-.713.689-.474 1.035-1.078 1.035-1.813 0-.431-.053-.786-.16-1.067-.109-.28-.336-.539-.68-.777-.346-.236-.854-.453-1.521-.647a33.389 33.389 0 0 0-2.623-.614c-3.625-.733-6.16-1.823-7.605-3.27-1.446-1.445-2.168-3.441-2.168-5.988 0-1.855.345-3.528 1.036-5.017a10.38 10.38 0 0 1 2.978-3.787c1.294-1.036 2.858-1.834 4.694-2.396 1.832-.56 3.871-.841 6.117-.841 3.666 0 7.227.712 10.68 2.136l-3.948 7.639zM537.443 490.919v23.434h-11.717v-23.434h-3.884v-9.775h3.884v-9.969h11.717v9.969h6.668v9.775h-6.668z"></path><path fill="#fff" d="M417.604 530.753h18.773c3.323 0 6.441.67 9.354 2.007 2.913 1.338 5.458 3.118 7.639 5.341 2.179 2.223 3.894 4.813 5.146 7.768a23.6 23.6 0 0 1 1.877 9.289c0 3.194-.615 6.27-1.845 9.226s-2.936 5.557-5.114 7.8c-2.18 2.245-4.726 4.036-7.639 5.373-2.913 1.338-6.053 2.007-9.419 2.007h-18.773v-48.811zm12.688 38.063h2.913c2.201 0 4.165-.345 5.891-1.035s3.182-1.64 4.369-2.849c1.187-1.208 2.093-2.643 2.719-4.305.625-1.661.938-3.484.938-5.471 0-1.941-.324-3.754-.971-5.438-.647-1.683-1.564-3.128-2.751-4.337-1.188-1.208-2.644-2.157-4.37-2.849-1.727-.689-3.668-1.035-5.826-1.035h-2.913v27.319zM464.536 562.667c0-2.46.496-4.758 1.489-6.895a16.941 16.941 0 0 1 4.143-5.567c1.769-1.574 3.873-2.815 6.312-3.722 2.438-.906 5.103-1.359 7.995-1.359 2.849 0 5.492.443 7.93 1.327 2.438.885 4.553 2.115 6.344 3.689a16.581 16.581 0 0 1 4.175 5.632c.992 2.18 1.488 4.586 1.488 7.218 0 2.633-.508 5.039-1.521 7.218a17.13 17.13 0 0 1-4.175 5.632c-1.77 1.576-3.895 2.795-6.376 3.658-2.482.862-5.168 1.294-8.059 1.294-2.849 0-5.481-.432-7.897-1.294-2.417-.863-4.499-2.093-6.247-3.69-1.748-1.596-3.118-3.506-4.111-5.729-.995-2.223-1.49-4.693-1.49-7.412zm12.364.129c0 1.123.205 2.147.615 3.075.41.929.949 1.738 1.618 2.428a7.123 7.123 0 0 0 2.395 1.618c.928.389 1.91.583 2.945.583a7.546 7.546 0 0 0 2.946-.583 7.143 7.143 0 0 0 2.395-1.618 8.223 8.223 0 0 0 1.618-2.428c.41-.928.615-1.931.615-3.01a7.218 7.218 0 0 0-.615-2.945 8.281 8.281 0 0 0-1.618-2.428 7.129 7.129 0 0 0-2.395-1.618 7.546 7.546 0 0 0-2.946-.583 7.534 7.534 0 0 0-2.945.583 7.109 7.109 0 0 0-2.395 1.618 8.348 8.348 0 0 0-1.618 2.395 6.974 6.974 0 0 0-.615 2.913zM543.834 530.753v48.81h-12.688v-48.81h12.688zM564.483 556.129v23.434h-11.717v-23.434h-3.884v-9.775h3.884v-9.969h11.717v9.969h6.668v9.775h-6.668zM573.416 573.348c0-1.035.194-2.017.583-2.945a7.512 7.512 0 0 1 1.618-2.428 7.485 7.485 0 0 1 2.428-1.618c.928-.388 1.909-.582 2.945-.582s2.017.194 2.945.582a7.528 7.528 0 0 1 2.428 1.618 7.518 7.518 0 0 1 1.618 2.428c.389.929.583 1.91.583 2.945a7.53 7.53 0 0 1-.583 2.945 7.496 7.496 0 0 1-1.618 2.428 7.47 7.47 0 0 1-2.428 1.618c-.929.389-1.909.583-2.945.583s-2.018-.194-2.945-.583a7.448 7.448 0 0 1-2.428-1.618 7.47 7.47 0 0 1-1.618-2.428 7.534 7.534 0 0 1-.583-2.945zM546.045 385.714c0 3.537-1.313 5.49-3.617 5.49-2.033 0-3.409-1.905-3.441-5.346 0-3.49 1.505-5.41 3.617-5.41 2.193 0 3.441 1.953 3.441 5.266zm-5.65.16c0 2.705.833 4.242 2.113 4.242 1.44 0 2.129-1.681 2.129-4.337 0-2.561-.656-4.242-2.113-4.242-1.233 0-2.129 1.504-2.129 4.337zM553.549 381.809h-3.97l-.399 2.673c.239-.032.464-.064.848-.064.801 0 1.601.176 2.241.561.816.464 1.488 1.36 1.488 2.673 0 2.033-1.616 3.554-3.873 3.554-1.137 0-2.097-.32-2.594-.641l.353-1.072c.433.256 1.28.576 2.225.576 1.329 0 2.465-.864 2.465-2.257-.016-1.345-.912-2.305-2.993-2.305-.592 0-1.056.064-1.44.112l.673-4.994h4.978v1.184zM555.658 384.562c0-.592.4-1.008.961-1.008.56 0 .928.416.944 1.008 0 .561-.368.993-.961.993-.559-.001-.944-.433-.944-.993zm0 5.65c0-.592.4-1.008.961-1.008.56 0 .928.416.944 1.008 0 .561-.368.993-.961.993-.559 0-.944-.433-.944-.993zM565.068 381.809h-3.97l-.399 2.673c.239-.032.464-.064.848-.064.801 0 1.601.176 2.241.561.816.464 1.488 1.36 1.488 2.673 0 2.033-1.616 3.554-3.873 3.554-1.137 0-2.097-.32-2.594-.641l.353-1.072c.433.256 1.28.576 2.225.576 1.329 0 2.465-.864 2.465-2.257-.016-1.345-.912-2.305-2.993-2.305-.592 0-1.056.064-1.44.112l.673-4.994h4.978v1.184zM567.066 391.028v-.864l1.104-1.073c2.656-2.529 3.857-3.874 3.873-5.442 0-1.057-.512-2.033-2.064-2.033-.944 0-1.729.48-2.209.88l-.448-.993a4.564 4.564 0 0 1 2.945-1.056c2.24 0 3.185 1.537 3.185 3.025 0 1.921-1.393 3.474-3.585 5.586l-.832.768v.032h4.674v1.168h-6.643zM423.056 381.424h-3.281v-1.185h7.987v1.185h-3.298v9.604h-1.408v-9.604zM434.787 387.091c0 2.865-1.985 4.114-3.858 4.114-2.097 0-3.713-1.537-3.713-3.986 0-2.593 1.696-4.114 3.842-4.114 2.224 0 3.729 1.617 3.729 3.986zm-6.147.08c0 1.697.976 2.977 2.353 2.977 1.345 0 2.353-1.265 2.353-3.009 0-1.313-.656-2.977-2.32-2.977-1.666 0-2.386 1.536-2.386 3.009zM443.25 379.664v9.364c0 .688.016 1.473.063 2.001h-1.265l-.063-1.345h-.032c-.432.865-1.376 1.521-2.641 1.521-1.873 0-3.313-1.585-3.313-3.938-.017-2.577 1.585-4.162 3.474-4.162 1.185 0 1.984.561 2.337 1.185h.031v-4.626h1.409zm-1.41 6.771a2.53 2.53 0 0 0-.063-.592c-.208-.896-.977-1.633-2.033-1.633-1.456 0-2.32 1.281-2.32 2.993 0 1.569.768 2.865 2.288 2.865.945 0 1.81-.624 2.065-1.681.048-.192.063-.384.063-.608v-1.344zM449.873 391.028l-.112-.977h-.048c-.432.608-1.265 1.153-2.369 1.153-1.568 0-2.368-1.104-2.368-2.225 0-1.873 1.664-2.897 4.657-2.881v-.16c0-.641-.176-1.793-1.761-1.793-.72 0-1.473.224-2.017.576l-.32-.928c.641-.416 1.569-.688 2.545-.688 2.369 0 2.945 1.617 2.945 3.169v2.897c0 .672.032 1.329.128 1.857h-1.28zm-.208-3.953c-1.536-.032-3.281.24-3.281 1.745 0 .913.608 1.345 1.328 1.345 1.009 0 1.649-.64 1.873-1.296a1.47 1.47 0 0 0 .08-.448v-1.346zM453.679 383.281l1.696 4.578c.177.512.368 1.121.497 1.585h.031c.145-.464.305-1.057.496-1.617l1.537-4.546h1.488l-2.112 5.522c-1.009 2.657-1.697 4.018-2.657 4.85-.688.608-1.377.849-1.729.913l-.353-1.185a3.715 3.715 0 0 0 1.232-.688c.385-.304.864-.848 1.185-1.568.064-.144.112-.256.112-.336s-.032-.192-.097-.368l-2.864-7.139h1.538z"></path><path fill="none" stroke="#f6537f" stroke-linecap="round" stroke-linejoin="round" stroke-miterlimit="10" stroke-width="2" d="m413.92 390.804-4.922-4.922 4.922-4.922"></path></svg>